<?xml version="1.0" encoding="utf-8"?>
<!-- Generator: Adobe Illustrator 19.0.0, SVG Export Plug-In . SVG Version: 6.00 Build 0)  -->
<svg version="1.1" id="Layer_1" xmlns="http://www.w3.org/2000/svg" xmlns:xlink="http://www.w3.org/1999/xlink" x="0px" y="0px"
	 viewBox="0 0 501.8 506.6" style="enable-background:new 0 0 501.8 506.6;" xml:space="preserve">
<style type="text/css">
	.st0{clip-path:url(#SVGID_2_);fill:#4B555D;}
	.st1{clip-path:url(#SVGID_2_);fill:#D64434;}
</style>
<g>
	<defs>
		<rect id="SVGID_1_" width="501.8" height="506.6"/>
	</defs>
	<clipPath id="SVGID_2_">
		<use xlink:href="#SVGID_1_"  style="overflow:visible;"/>
	</clipPath>
	<path class="st0" d="M44.9,109.5c0,0,0.4-0.7,0.8-1.4c0.4-0.7,0.8-1.4,0.8-1.4C43.6,110.8,45,109.1,44.9,109.5"/>
	<path class="st0" d="M44.6,110l0.2-0.2c0.1-0.1,0.1-0.2,0.1-0.3L44.6,110z"/>
	<path class="st0" d="M41.8,388.2c0.2,0.3,0.3,0.7,0.5,1.1c0.6,0.7,1.2,1.5,1.8,2.1C43.4,390.4,42.5,389.4,41.8,388.2"/>
	<path class="st0" d="M39.1,386.5l-2.6-4.7C37.1,382.9,37.9,384.4,39.1,386.5"/>
	<path class="st0" d="M143.1,480.6c0.1,0,0.2,0.1,0.3,0.1C143.3,480.6,143.2,480.6,143.1,480.6L143.1,480.6z"/>
	<path class="st0" d="M134.7,476.5c3.7,1.5,5.7,2.7,8.4,4c0,0-0.6-0.5-1.2-1.1c-0.3-0.3-0.6-0.5-0.8-0.8c-0.2-0.2-0.4-0.4-0.4-0.4
		L134.7,476.5z"/>
	<path class="st0" d="M39.5,386.7c-0.2-0.5-0.2-0.6-0.3-0.8C38.8,385.3,38.7,385.3,39.5,386.7"/>
	<path class="st0" d="M376.5,470.9c-3.1,1.5-5.6,2.8-7.7,3.9C372.5,473.1,375.6,471.7,376.5,470.9"/>
	<path class="st0" d="M359.8,479.2c0.6-0.2,1.1-0.5,1.7-0.7c1.1-0.6,2.3-1.1,3.5-1.7c1.2-0.6,2.5-1.2,3.8-1.9
		c-1.4,0.7-2.9,1.3-4.4,2C362.8,477.6,361.3,478.4,359.8,479.2"/>
	<path class="st0" d="M388,465.8l-5.8,3.7c-0.5,0.5,1.1-0.4,3.3-1.8C386.8,466.7,389,465.4,388,465.8"/>
	<path class="st0" d="M405.7,454.9c-1.5,1.1-1.7,1.1-2.6,1.6l0.1,0.5L405.7,454.9z"/>
	<path class="st0" d="M389.2,466.4c-0.5,0.5-8.4,5.5-0.9,1c0.3-0.2,1.9-1.3,2.7-1.9c0.4-0.3,0.6-0.5,0.4-0.4
		C391.3,465.2,390.6,465.6,389.2,466.4"/>
	<path class="st0" d="M498.9,300.2c0,0.3,0.6-1.6,0.8-1.9c0,0,0.2-0.9,0.3-1.8c0.1-0.9,0.2-1.8,0.2-1.8
		C499.9,296.5,499.1,300,498.9,300.2"/>
	<path class="st0" d="M499.7,298.3l-0.9,5.4C499.8,298.9,499.9,298,499.7,298.3"/>
	<path class="st0" d="M494.1,320.5c0,0,0.1-0.8,0.3-1.5c0.1-0.8,0.3-1.6,0.3-1.6s-0.3,1.4-0.5,2.7c-0.3,1.3-0.6,2.7-0.6,2.7
		L494.1,320.5z"/>
	<path class="st0" d="M496.7,312.8c-0.2,0.4-0.6,1.2-1.4,4.1l0.9-2C496.3,314.3,496.5,313.6,496.7,312.8"/>
	<path class="st0" d="M496.2,314.8L496.2,314.8c-0.6,2.3-1,3.9-1.2,4.6C495.2,318.8,495.5,317.5,496.2,314.8"/>
	<path class="st0" d="M496.8,312.3c-0.1,0.2-0.1,0.3-0.1,0.5C496.8,312.6,496.8,312.5,496.8,312.3"/>
	<path class="st0" d="M501.7,289.6c-0.3,3.2-1.2,9.9,0.1,3.5C502,290.8,501.2,294.4,501.7,289.6"/>
	<path class="st0" d="M497.9,309.8c0,0,0.1-0.4,0.2-0.9c0.1-0.5,0.3-1.2,0.4-1.9c0.3-1.4,0.6-2.8,0.6-2.8c-0.1,0.1-0.4,1.1-0.2-0.5
		c0,0-0.3,1.6-0.5,3.1c-0.1,0.8-0.3,1.5-0.3,2.2C498,309.4,497.9,309.8,497.9,309.8"/>
	<polygon class="st0" points="497.3,312.6 497.9,309.8 497.3,311.9 	"/>
	<path class="st0" d="M492.6,327.4c0,0.2-0.1,0.4-0.1,0.5C492.6,327.6,492.7,327.4,492.6,327.4"/>
	<path class="st0" d="M489.6,337.1c0.9-2.3,1.3-3.8,1.7-5.1c-0.6,1.8-1.3,3.6-2,5.7C489.3,337.8,489.3,337.9,489.6,337.1"/>
	<path class="st0" d="M492.1,328.7c0-0.1,0.1-0.2,0.1-0.4C491.9,329.2,492,329.1,492.1,328.7"/>
	<path class="st0" d="M492.1,328.7c-0.3,1.3-0.5,2.3-0.8,3.2c0.4-1.5,0.8-2.8,1.1-4C492.3,328.2,492.2,328.5,492.1,328.7"/>
	<path class="st0" d="M501.5,299.2c-0.1,0.3-0.1,0.3-0.1,0.3C501.2,300.2,501.2,300.5,501.5,299.2"/>
	<path class="st0" d="M500.3,303.7c0.1-0.8,0.1-1.5,0.7-4.1c0.6-2.3,0.2,0,0.3-0.1c0.3-1.6,0.8-5.6-0.3-0.6l-0.1,0.8
		c-1,4.4-2.6,10.1-2.5,9.3C499.1,307.7,499.5,306.6,500.3,303.7"/>
	<path class="st0" d="M493.1,329c0,0-0.2,0.6-0.4,1.4c-0.2,0.8-0.5,2-1,3.1c-0.8,2.2-1.5,4.4-1.5,4.4l1.9-4.4l-0.3,0.2
		C493.6,328.6,493,329.6,493.1,329"/>
	<path class="st0" d="M487.9,164.8c-0.8-2.2-0.8-1.3-0.9-1.6C488.3,166.9,487.9,164.7,487.9,164.8"/>
	<path class="st0" d="M490,333.8c0.6-2.2-1.4,2.9-0.7,0.5c-1.2,3.6-2.1,6.7-3,9.4C487.3,340.8,488.4,337.7,490,333.8"/>
	<path class="st0" d="M484.6,348.3c0.5-1.4,1.1-3,1.6-4.6C485.7,345.2,485.1,346.7,484.6,348.3"/>
	<path class="st0" d="M488.5,339.1c-0.4,1.2-0.8,2.5-1.2,3.8c-0.5,1.3-1,2.7-1.6,4.1c0.7-1.5,1.4-3.1,2-4.7c0.6-1.6,1.1-3.2,1.7-4.7
		C489.4,337.2,489.7,335.8,488.5,339.1"/>
	<path class="st0" d="M472.5,374.6c0.1-0.1,0.2-0.3,0.3-0.4c0,0,0-0.1,0-0.1L472.5,374.6z"/>
	<path class="st0" d="M481.4,356.2c0.3-0.6,0.6-1.2,1-1.8c0.3-0.7,0.6-1.3,1-2c-0.3,0.6-0.7,1.4-1.1,2.2
		C481.8,355.3,481.5,355.9,481.4,356.2"/>
	<path class="st0" d="M469.6,383.7c0-0.3,0.8-1.9,2-4c0.6-1.1,1.3-2.2,2-3.5c0.7-1.3,1.4-2.5,2.2-3.8c2.5-5.1-0.2-2.3-2.9,1.8
		c0,0.2,0.2,0.3-2.6,5.3c1.3-1.6,6.5-11,4.5-6.6c-1.7,3.4-2.6,4.7-3.2,5.6c-0.6,0.9-1,1.4-2,2.9c1-1.3-0.2,0.9-1.4,3.2
		c-1.2,2.4-2.6,4.8-1.9,4.2c0,0,0.2-0.4,0.5-0.9c0.4-0.6,0.8-1.3,1.2-2c0.8-1.5,1.6-2.9,1.6-2.9
		C469.7,383.1,468.6,385.2,469.6,383.7"/>
	<path class="st0" d="M477.9,364.5l1-2.2c-0.6,1.2-1.1,2.2-1.8,3.3c-0.7,1.1-1.4,2.3-2.3,3.8c-1.7,3.6-2,4.3-2,4.6
		c0,0,1.4-2.6,2.8-5.1c0.7-1.3,1.4-2.6,1.9-3.5c0.5-1,0.8-1.6,0.8-1.6L477.9,364.5z"/>
	<path class="st0" d="M483.4,352.7c-0.1,0.4-0.3,1.1-0.5,1.8c-0.3,0.7-0.5,1.4-0.8,2c-0.4,1.2-0.5,1.7,0.4,0.2
		c0.8-1.6,1.2-2.6,1.5-3.5c0.3-0.8,0.5-1.3,0.6-1.7c0.3-0.9,0.4-1.4,1.1-3.3C481.4,358.7,486.7,345.2,483.4,352.7
		c0.9-2.1,1.6-4,2.3-5.7c-0.8,1.8-1.6,3.6-2.3,5.3c0-0.1,0.1-0.2,0.1-0.2l0,0c0.2-0.4,0.3-0.6,0.1-0.1c0,0-0.1,0.2-0.1,0.2
		C483.5,352.3,483.4,352.5,483.4,352.7c-1.3,3-0.3,0.4,0.1-0.5c0-0.1,0-0.1,0-0.1l0,0c0,0-0.3,0.6-0.6,1.6c-0.4,1-1,2.2-1.6,3.5
		c-1.2,2.6-2.3,5.1-2.3,5.1c0.5-1.1,1.1-2.3,1.8-3.8c0.3-0.8,0.7-1.6,1.2-2.6C482.4,355,482.9,353.9,483.4,352.7"/>
	<path class="st0" d="M471.9,375.5l0.3-1.2c0,0-0.5,1.2-1.1,2.5c-0.6,1.2-1.2,2.4-1.2,2.4L471.9,375.5z"/>
	<path class="st0" d="M465.7,385.9l0-0.5c0,0-0.1,0.2-0.2,0.4c-0.2,0.3-0.4,0.6-0.6,1c-0.4,0.7-0.8,1.4-0.8,1.4L465.7,385.9z"/>
	<path class="st0" d="M473.5,132.7c-0.5-1-1.4-2.6-2.3-4.1C471.6,129.3,472.3,130.5,473.5,132.7"/>
	<path class="st0" d="M435.7,424.5C437.5,422.6,436,424.2,435.7,424.5"/>
	<path class="st0" d="M445.1,416c-0.4,0.4-0.6,0.8-0.5,0.9C444.6,416.7,444.8,416.3,445.1,416"/>
	<path class="st0" d="M438.4,421.7c-0.7,0.7-1.4,1.5-2.3,2.4C436.5,423.7,437.2,423,438.4,421.7"/>
	<path class="st0" d="M437.9,422c0.6-0.7,1.1-1.2,1.5-1.7C439.7,420.1,439.4,420.2,437.9,422"/>
	<path class="st0" d="M433.2,427c1-1.1,2-2,3-2.9c-0.4,0.3-0.5,0.5-0.5,0.4C435.2,425,434.4,425.8,433.2,427"/>
	<path class="st0" d="M16.7,164.5l-2.5,6.1c1.1-3.8,2.2-7.1,2.7-8.7c0.5-1.6,0.4-1.5-0.8,1.3c0.2,0.3-0.3,2-1.1,4.3
		c-0.7,2.4-1.9,5.4-2.8,8.5c-0.9,3.1-1.9,6.1-2.5,8.5C9.1,187,8.9,188.7,9,189l-1.3,4.2c0.3-1.2,0.3-1.4,0.6-2.6
		c-2.6,8.1-0.8,6.3-3.1,16.9c-0.8,3.7-1.2,6.3-1,3.7l-1,8.4c-0.2,1.2-0.3,1.7-0.3,1.5c0-0.2,0-0.9,0.2-2.1c0,0-0.1,0.8-0.3,2
		c-0.1,1.2-0.3,2.8-0.4,4.4c-0.3,3.2-0.6,6.4-0.6,6.4l0-0.1c-0.1,1.8,0,6,0,8.1c-0.3,3.3,0-1.6-0.2-0.8c0,0,0,1.8-0.1,3.6
		c0,0.9,0,1.8,0,2.4c0,0.7,0,1.1,0,1.1c-0.1,1.5-0.3,0.7-0.3-1c0-1.7,0.1-4.4,0.3-6.9c-0.7,3.3-0.7,4.8-0.7,7.3
		c0.1,2.4,0.2,5.9-0.1,13.1c0,0,0-0.4-0.1-1.1c0-0.6,0-1.5,0-2.3c0-1.7,0-3.4,0-3.4c-0.2,1.1-0.3,2.2-0.3,3.5
		C0,256.4,0,257.7,0,259.1c0.1,2.8,0.2,6,0.1,9.9c0.1-1.8,0.3-15.3,0.9-7.6c0,2.2,0,5,0.5,9.2c-0.4,0,0.1,4.1,0.6,9.2l-0.5-0.3
		c0.3,2.7,0.6,4,0.8,4.9c0.3,1,0.5,1.7,0.8,3.3c0.8,6.1,0.6,7.4,0.6,8.9c1.8,9.7-0.7-6.8,1.6,4.7c0.3,2,0.7,3.9,1,5.7
		c0.4,1.8,0.9,3.5,1.3,5.3c1,3.6,1.9,7.3,3.5,12c1.5,5.5-0.6-0.9-0.1,1.1l1.8,4.7c0.3,1.2,0.1,0.8,0,0.7c1.5,4,0.5,0.2,2.9,6.5
		c0.3,0.4,0.7,1.4,1.1,2.8c0.2,0.7,0.5,1.5,0.8,2.4c0.3,0.9,0.6,1.9,1,2.9c0.7,2,1.5,4.2,2.4,6.4c0.9,2.1,1.7,4.3,2.8,6.1
		c0.8,1.9-0.7-0.8-0.6-0.1c2.6,5.1,3.8,7.3,4.8,9.2c1,1.9,2.1,3.6,4.6,7.6c0,0,0.9,1.8,1.8,3.6c0.4,0.9,0.9,1.8,1.3,2.4
		c0.4,0.7,0.6,1.1,0.6,1.1c-2.7-5.2,1.5,1,5.2,6.4c-0.9-1.9-1.7-3.5-2.3-4.5c0,0,1.4,2.2,2.8,4.4c0.7,1.1,1.5,2.1,2,2.9
		c0.6,0.8,1,1.3,1,1.3c0.6,1.1-0.1,0.3-1.2-1c0.4,0.6,0.9,1.1,1.2,1.5c1.9,3.2,0.6,1.8-1.1-0.3c-0.6-1.1-1.3-2.2-1.9-3.3
		c-1.6-2-3.1-4-3.1-3.3c0.4,0.6,1.1,1.6,1.9,2.9c-0.4-0.5-0.7-0.9-0.6-0.6c0.2,0.3,0.8,1.2,1.8,2.6l0.9,2.3l0.5,0.4
		c0,0,1.8,2.9,3.7,5.8c0.9,1.5,2,2.8,2.7,3.9c0.8,1,1.3,1.7,1.3,1.7c1.6,1.9,3.2,3.7,4.7,5.5c1.7,1.7,3.4,3.6,5.2,5.5
		c0.9,1,1.8,2,2.8,3c1,1,2.1,2.1,3.2,3.2c1.1,1.1,2.3,2.3,3.5,3.5c1.2,1.2,2.5,2.6,3.9,3.9c-3-2.4-1.1-0.1-1.5,0
		c-1.3-1.7-3.4-3.9-5.8-6.4c-1.2-1.3-2.6-2.6-3.8-4c-1.3-1.5-2.6-3-3.9-4.6c2.7,3.3,1.9,2.7,1.2,1.9c0,0,0.6,0.7,1.5,1.7
		c0.4,0.5,1,1.1,1.5,1.7c0.6,0.6,1.2,1.2,1.9,1.9c2.5,2.6,5.1,5.1,5.1,5.1c-0.3,0,0.2,0.6,1,1.6c0.8,1,2.1,2.2,3.4,3.6
		c-0.7-1.3,1.3,0.5,4,3.2c0.7,0.6,1.4,1.3,2.2,2c0.8,0.7,1.6,1.4,2.3,2c1.6,1.4,3,2.6,4.1,3.6c0.1,0.4-1.1-0.3-6.4-5.1
		c5.5,5.7,8.1,6.2,13.8,11.4c-1.4-1.1-2.1-1.7-2.7-2c1.7,1.2,4.4,3.4,6.5,5.1c2.1,1.7,3.6,2.9,2.6,2.3l-1.4-1
		c2.3,1.7,5.3,3.9,8.4,6.2c3.2,2.2,6.6,4.4,9.8,6.5c1.6,1.1,3.2,1.9,4.6,2.8c1.5,0.8,2.8,1.5,4,2.2c2.3,1.3,3.9,2.1,4.4,2.1
		c0.1,0.1-1.7,0-2.4-0.3c0,0,0.3,0.1,0.8,0.4c0.5,0.2,1.3,0.5,2.2,0.9c1.8,0.7,4.2,1.7,6.6,2.7c2.4,1,4.8,1.9,6.7,2.5
		c1.8,0.6,3.1,1.1,3.1,1.1c-1.9-0.3,3.9,3.9-4.9,0.1c1.2,0.6,2.6,1.3,4.3,2.2c1.7,0.8,3.8,1.8,6.6,2.8c-1.7-0.8-4-2.6-1.6-1.6
		c3.1,1.6,4.2,2.2,5.5,2.8c0.7,0.3,1.3,0.6,2.4,1.1c1,0.5,2.4,1.2,4.4,2c-2.6-1.1,0.7-0.8,4.8,0.7c-0.7-0.1,0.1,0.9-1.5,0.5
		c0,0,2.7,0.7,5.4,1.5c1.3,0.4,2.7,0.6,3.7,0.9c1,0.2,1.7,0.4,1.7,0.4c-2.7-0.7-0.7,0.6,1.6,1.5c-0.5-0.3,1.8,0.4,4.5,1.3
		c2.8,0.8,6.1,1.6,7.6,2l-4.5-1.4c6.1,1.6,9.1,2.2,12.2,2.4c1.5,0.1,3.1,0.3,5,0.6c1.9,0.3,4.2,0.7,7.2,1.2c-1.5,0-3.9,0.5,2.4,1.6
		c0.7,0,1.9,0,3.4,0c1.5,0,3.4,0.1,5.5,0c2.1,0,4.5,0,7,0c1.3,0,2.5,0.1,3.9,0.1c1.3,0,2.7,0,4,0l2.1,0.4c0,0,2.1,0,4.2,0.1
		c1,0.1,2.1,0,2.9,0c0.8,0,1.3,0,1.3,0c-2.6,0.4-7.6,0.5-12.9,0.8c-2.7,0.2-5.4,0-8,0c-2.6-0.1-5-0.1-7.1-0.2
		c4.6,0.7,1.3,0.4,8.3,1.2c2.5,0.5-3.9-0.1-5.9-0.3c0,0,4.1,0.5,8.2,0.9c2,0.3,4.1,0.4,5.6,0.5c1.5,0.1,2.6,0.2,2.6,0.2
		c-0.4-0.3,2.8-0.3,5.9-0.2c3.2-0.1,6.3-0.2,6-0.4c0,0-1.1,0-2.8,0.1c-0.8,0-1.8,0-2.8,0.1c-1,0-2.2-0.1-3.3-0.1
		c-4.5-0.1-8.9-0.2-8.9-0.2c-0.3-0.3,2.3-0.5,6.4-0.6c2-0.1,4.5,0.1,7.1,0c2.6-0.1,5.5-0.1,8.4-0.1c2.9,0.2-2.2,0.9-2,1.1
		c0.4,0,1.2-0.1,2.4-0.1c1.1,0,2.5-0.1,3.8-0.2c2.7-0.2,5.3-0.3,5.9-0.2l-4.9,0.5c3.2,0,5.9-0.3,8.6-0.6c2.8-0.3,5.7-0.7,9.6-0.8
		c1.3-0.1,3.3-0.1,5.1-0.2c1.7-0.1,3.1-0.2,3.4-0.4c-4.4,0-5.4-1.7-2.6-2.5c0.4-0.1,3.9-0.4,7.7-0.7c0.9-0.1,1.9-0.2,2.8-0.3
		c0.9-0.1,1.8-0.3,2.6-0.4c1.7-0.2,3-0.4,3.8-0.5c4.4-0.4-6.3,2.3-2.5,2c0.1-0.2,2.5-0.8,3.5-1.1c2.8-0.4-1.1,0.6,4.9-0.6
		c0.9-0.7,12.1-2.9,2.7-1.1c2.9-0.8,4.4-1.2,6.1-1.5c1.7-0.4,3.5-0.7,6.8-1.8c-1.1,0.1,0.3-0.6,2.7-1.6c2.4-1,5.8-2.2,8.6-3.3
		c-0.3,0.2,1-0.1,1.7-0.2c2.9-1,5.4-1.9,7.8-2.7c2.3-0.9,4.5-1.8,6.6-2.6c2.1-0.9,4.3-1.6,6.4-2.6c2.2-1,4.5-2.1,7-3.3
		c1-0.3,6-2.6,4-1.4c1.4-0.8,2.6-1.7,5.7-3.4c6.2-2.8-6.9,3.8-2,1.8c0.2-0.5,7.9-4.6,12-7.5c-0.4,0.1-1.2,0.5-2.3,1.1
		c-1.1,0.6-2.4,1.5-3.8,2.2c-2.9,1.6-6.1,3.6-8.3,4.8c-0.2-0.3,1.6-1.6,4.7-3.6c1.5-1,3.4-2.1,5.5-3.5c2.1-1.4,4.4-2.9,6.9-4.5
		c2-1.2,3.2-2,3.9-2.5c0.7-0.4,1-0.6,1-0.5c0.1,0.1-0.6,0.7,0.1,0.2c3.7-2.5,6.3-4.3,8.3-5.7c1.9-1.6,3.3-2.7,4.6-3.8
		c1.3-1.1,2.5-2.2,4.1-3.5c1.7-1.3,3.6-3,6.5-5.2c4.7-3.4,0.7,0.5,1.9-0.2c-2.9,2.5-5.2,4.4-7.3,6c-2.2,1.5-4.1,2.9-6.1,4.4l5.2-3.7
		c-1.9,1.6-5.9,4.8-8.2,6.3c1-0.7,3.1-2.1,5.7-4c1.3-1,2.8-2.1,4.3-3.2c1.5-1.3,3.1-2.6,4.7-4c1.7-1.4,3.4-2.8,5.1-4.2
		c1.6-1.5,3.3-3,4.9-4.5c1.6-1.5,3.2-2.9,4.6-4.3c1.5-1.4,2.8-2.7,4-3.9c1.6-1.8,4.4-4.9,2.9-3.6l-3,3.1c-3,2.6,5.4-6.1,1.4-2.3
		c0.5-0.5,1-1.1,1.5-1.6c0.5-0.6,1-1.2,1.5-1.8c1-1.2,2-2.4,3.1-3.7c1.1-1.3,2.2-2.6,3.4-4c1.1-1.4,2.4-2.9,3.7-4.5l1.3-0.9
		c-0.2,0-3.5,4-4.9,5.8c1-1.4,3.1-3.7,5.2-6.1c1-1.2,2.1-2.4,2.9-3.5c0.8-1.2,1.5-2.2,2-3c0,0-0.9,1.1-1.8,2.2
		c-0.4,0.6-0.9,1.1-1.3,1.5c-0.4,0.4-0.6,0.7-0.6,0.7c0.9-1.1,1.7-2.4,2.6-3.8c0.9-1.3,1.8-2.7,2.8-4.2c0.9-1.4,2-2.8,2.9-4.3
		c1-1.5,1.9-3,3-4.5c-2.2,2.5-0.9,1.4-4.1,5.4c3.2-3.2-10.9,14.8-6.1,9.5c-1.9,1.8-3.4,3.6-4.9,5.5c-1.6,1.9-3.3,4-5.8,6.3
		c0.3-0.1,1.8-1.6-2.2,2.8c-0.2,0.2-0.6,0.8-0.8,1.1c-0.1,0.1-0.2,0.2-0.3,0.3c0.1-0.1,0.1-0.2,0.2-0.2c-0.2,0.2-0.2,0.2,0.1-0.1
		c1-1,1.8-1.8,2.2-2.1c-0.9,1.2-2.9,3.7-5,6c-2.2,2.3-4.4,4.6-5.5,5.9c-2.6,2.5,0.9-1.2-0.6,0.1c0,0-0.8,0.9-1.6,1.8
		c-0.8,0.9-1.7,1.7-1.7,1.7c-0.6,0.1-7.4,6-1.3,0.2l-5.6,5.1c-1.7,1.4-3.8,3-5.8,4.7c-2,1.6-3.9,3.3-5.3,4.5c-2.9,2.1-7,5.7-4.7,3.7
		c0,0-0.6,0.5-1.5,1.1c-0.9,0.7-2,1.6-3.2,2.5c-2.4,1.7-4.9,3.4-4.9,3.4h-0.1c-4.8,3.4-10,6.5-15.3,9.8c-5.5,3-11.1,6.3-17.4,8.7
		c-1.8,0.9-3.6,1.8-5.7,2.8c-2.2,0.9-4.6,2-7.7,3.2l-1.3,0.2c-2.3,1.1-5.9,2.2-9.2,3.4c-3.3,1.1-6.2,2.2-7.2,2.5
		c-1.4,0.2-3.5,0.7-6.1,1.5c-1.3,0.3-2.7,0.8-4.2,1.2c-1.5,0.4-3.1,0.8-4.7,1.2c-1.6,0.4-3.2,0.8-4.8,1.2c-1.6,0.4-3.2,0.9-4.7,1.1
		c-3.1,0.6-5.9,1.2-8.1,1.6l-0.3,0.5c-0.8,0.1-1.5,0.3-2.2,0.4c-0.8,0.1-1.5,0.2-2.3,0.3c-1.5,0.2-3.1,0.5-4.6,0.7
		c-1.6,0.2-3.2,0.5-4.9,0.8c-1.7,0.2-3.5,0.4-5.4,0.6l0.5,0.3c-3.3,0.4-7.5,0.9-12.2,0.9c-2.4,0.1-4.8,0.1-7.4,0.2
		c-2.5,0-5.1-0.1-7.7-0.1c0.7-0.1,3.3-0.1,5.2,0c-12.4-0.5-26.3-0.4-37.4-2.5c-2.8-0.3-4.8-0.6-6.7-1c0.2,0,0.5,0.1,0.7,0.1
		c-0.3-0.1-0.7-0.1-1.1-0.2c-1.2-0.2-2.5-0.5-3.8-0.9c1.1,0.3,2.2,0.6,3.2,0.8c-2.1-0.3-5.4-1-8.5-1.5l-1.3-0.6
		c-0.3-0.1-0.5-0.1-0.7-0.2c-3.1-0.7-2.5-0.3-0.9,0.3c-1.6-0.2-3.1-0.6-4.2-0.8c-1.2-0.6-3.2-1.1-5.4-1.6c-1.1-0.3-2.2-0.5-3.3-0.8
		c-1-0.3-2-0.7-2.8-1.1c-1.1-0.2-5-1.3-8.8-2.4c-3.8-1.2-7.6-2.4-8.5-2.4c-0.1-0.1-1-0.5,0.7,0.1c-3.4-1.2-6.7-2.7-9.7-3.8l-1.2-1
		c0,0-1.9-0.6-3.8-1.2c-1.8-0.7-3.7-1.4-3.7-1.4c-4.2-2.3-5.9-3.3-1.5-1.6c-2.7-1.1-4.5-1.9-5.9-2.5c-1.4-0.7-2.4-1.2-3.3-1.7
		c-1.9-0.9-3.6-1.8-8-3.9l0.6,0c-3-1.8-8-4.3-9.7-5.5c-1.6-1.2-4.3-3.1-7.9-5.5c-0.9-0.6-1.8-1.2-2.8-1.9c-1-0.7-1.9-1.4-3-2.2
		c-2-1.5-4.2-3.1-6.4-4.7c-8.8-6.9-18.3-15.3-25.1-22.6c1.1,1.7-0.5,0-2.5-2.2c-1.9-2.2-4.1-4.9-4.7-5c-0.6-1-2.4-3.1-0.1-0.9
		c-0.9-0.9-1.7-1.8-2.5-2.6c-0.8-0.8-1.4-1.7-2.1-2.4c-1.3-1.6-2.4-3-3.5-4.3c-1.1-1.3-2.2-2.5-3.1-3.8c-1-1.3-2-2.6-3.2-3.9
		c-0.5-1.1,1.6,1.5,1,0.7c-0.5-0.6-2.1-2.5-2.6-3.4c-0.5-0.9,1,1.1,2.1,2.3c-1.6-2.1-2.8-3.7-3.8-4.9c-0.9-1.2-1.7-2.1-2.2-2.8
		c-1.1-1.2-1.6-1.4-2.1-1.6c-1.4-2.3-2.4-3.9-3.5-5.4c-0.9-1.5-1.9-2.9-3-4.4c-0.8-1.7-2.2-4.4,1.2,1.1c-0.5-0.8-1.4-2.4-2.6-4.3
		c-0.6-1-1.2-2-1.8-3.1c-0.6-1.1-1.2-2.3-1.8-3.4c-2.4-4.5-4.8-8.7-5-8.8c-0.4-1.1-2.2-4.6-2.6-5.5c-0.9-1.8-1.5-3.3-2.1-4.5
		c-0.5-1.2-0.9-2.2-1.4-3.3c-0.8-2-1.7-4.1-3.2-7.8l0.8,2.1c-1.8-2.7-2.5-6.2-4.8-12.3l0.1,0.2c-1.2-3.5-1.7-5.7-2.2-7.2
		c-0.4-1.5-0.7-2.2-0.9-3c-0.2-0.8-0.5-1.5-0.9-3c-0.2-0.7-0.5-1.6-0.8-2.8c-0.3-1.2-0.6-2.6-1-4.4l-0.2,0.8c-0.5-0.5-1.2-3.7-2-7.8
		c-0.7-4.1-1.4-9.1-2.3-13.2c0,0,0.1,0.7,0.2,1.5c0.1,0.7,0.2,1.5,0.2,1.5c-0.6-2.2-0.8-5.5-0.9-8.7c-0.1-3.3-0.3-6.5-0.4-8.8
		c0-1,0.2,1.6,0.5,3c-0.7-12.1-0.6-1.5-1.6-10.6c0-0.8,0.3-0.3,0.4-0.3c0.1,0,0.1-0.2,0.1-0.7c0-0.5,0-1.4-0.1-2.9
		c0.1-1.5-0.4-5.9-0.7-11c-0.1-2.5-0.1-5.3-0.1-7.9c0-1.3,0-2.6,0-3.8c0.1-1.2,0.2-2.3,0.3-3.4c-0.3,1.8-0.6,3.6-0.5-0.6
		c0.2-6.5,2-17.4,2.3-23.2c0.2-0.8,0.3-1.1,0.3-1.1c0.2-1.2,0.4-2.8,0.6-4.6c0.2-1.8,0.5-3.7,0.8-5.6c0.7-3.7,1.3-7.2,1.4-8.7
		c0.5-1.1,1.3-3.4,2.1-6.4c0.8-3,1.6-6.6,2.6-10c1-3.4,1.8-6.7,2.7-9.1c0.9-2.4,1.5-3.9,1.8-3.7c0,0,0.3-0.9,0.8-2.2
		c0.5-1.3,1.1-3.2,1.8-4.9c1.4-3.5,2.9-7,2.9-7l0,0.4c0.5-1.1,0.9-2.2,1.3-3.1c0.4-0.9,0.8-1.8,1.2-2.6c0.7-1.6,1.3-2.9,1.8-4.1
		c1-2.3,1.5-3.9,2.2-5.5c1.1-2,0.5-0.5,0.4-0.3c3.4-6.2,5.2-9.7,7.1-12.8c0.9-1.6,1.7-3.1,2.7-4.9c0.9-1.8,2.1-3.8,3.7-6.4l1-0.8
		c1.4-2.9,12.1-16.6,21-27.3c-0.1,0.1-0.2,0.4-0.9,1.3c5-6.1,11.6-12.7,17.7-18.1c1.5-1.4,3-2.7,4.3-3.9c0.7-0.6,1.3-1.2,2-1.8
		c0.6-0.5,1.3-1.1,1.9-1.6c2.3-2,4.1-3.7,5-4.9c0,0,0.5-0.4,1.2-1.1c0.7-0.7,1.7-1.5,2.7-2.3c2-1.6,4-3.3,4-3.3
		c-10.8,8,1.2-1.7-3.3,1.5c2.1-1.6,4.9-3.6,6.5-4.7c0.8-0.5,1.4-0.8,1.4-0.7c0,0.1-0.6,0.5-1.9,1.5l-0.9,0.6
		c-0.4,0.5,0.3,0.1,1.5-0.7c1.2-0.8,3-2,4.8-3.2c1.8-1.2,3.7-2.5,5.1-3.4c1.4-0.9,2.4-1.4,2.4-1.3c2.8-1.7,5.6-3.4,8.4-5.1
		c2.8-1.6,5.7-3.1,8.6-4.7c1.4-0.7,2.8-1.6,4.3-2.2c1.5-0.7,2.9-1.4,4.4-2.1c2.9-1.3,5.8-2.8,8.8-4c3-1.2,5.9-2.4,8.8-3.6
		c3-1.1,6-2.1,8.9-3.2c1.5-0.5,2.9-1.1,4.4-1.5c1.5-0.4,3-0.9,4.5-1.3c1.5-0.4,3-0.9,4.5-1.3c1.5-0.4,3-0.9,4.5-1.2
		c0,0-0.7,0-1.4,0.1c-0.4,0-0.7,0-1,0.1c-0.3,0-0.4,0.1-0.4,0.1s0.5-0.2,1.3-0.4c0.8-0.2,1.8-0.4,2.9-0.7c2.1-0.5,4.2-1,4.2-1
		c2.2-0.4,3-0.3-2.9,1.1c1.6-0.2,4.1-0.9,6.2-1.5c2.1-0.7,3.9-1.1,3.9-1.2c11.8-2.1-4.5,1.5-0.9,0.8l4.9-1l-1.1,0.2
		c2-0.5,3-0.8,4.5-1.2c0.8-0.2,1.6-0.4,2.7-0.6c1.1-0.2,2.5-0.4,4.3-0.6c4.6-0.6,2.4,0,4.2-0.2c0,0,0.2,0,0.6,0
		c0.4-0.1,1.1-0.2,2.2-0.4c0,0,0.7-0.1,1.7-0.2c1-0.1,2.4-0.2,3.7-0.3c2.7-0.2,5.4-0.5,5.4-0.5l-4.3,0c2.4-0.3,4.9-0.6,6.2-0.7
		c0.7-0.1,1-0.1,0.9-0.1c-0.1-0.1-0.7-0.1-2-0.1c3.7,0.1,13.8-0.4,23.6-0.1c2.5,0,4.9,0.2,7.2,0.3c2.3,0.1,4.4,0.2,6.4,0.3
		c3.8,0.3,6.7,0.7,7.8,0.8c1.7,0.1,3.4,0.2,5.1,0.4c1.7,0.2,3.4,0.4,5.2,0.7c3.5,0.5,7.2,1,11.2,1.9c-2-0.5-3.1-1.2,3.9,0.3
		c-0.7,0.1-0.2,0.4,0.9,0.7c1.1,0.3,3,0.7,5.1,1.3c2.1,0.6,4.4,1.2,6.5,1.8c1.1,0.3,2.1,0.6,3,0.9c0.9,0.3,1.7,0.7,2.4,1
		c-2.4-1,2.5,0.5,7,1.8c2.2,0.6,4.3,1.4,5.5,1.7c1.1,0.3,1.2,0.2-0.6-0.6c5.5,2.1,0.2,0.5,4.4,2.2c13.4,4.5,28.6,12.2,43.6,21.1
		c0.3,0-2.1-1.6,1.2,0.1c0,0,0.5,0.3,1.2,0.8c0.7,0.5,1.7,1.2,2.5,1.9c1.8,1.4,3.7,2.8,3.7,2.8c1.4,0.9,2.2,1.2,3.2,1.7
		c0.5,0.3,1.1,0.6,1.9,1.1c0.7,0.6,1.6,1.3,2.8,2.3c-0.6-0.6-1.6-1.5,0.3-0.2c13.7,10.2,26.9,21.7,38.7,34.7
		c11.9,12.9,22.3,27.2,30.5,42.5c-2.2-4.1-0.6-1.5,1.3,1.6c-1.2-2,0.3-0.1,0.2-0.6c0,0,0.1,0.2,0.3,0.5c0.2,0.4,0.4,0.9,0.7,1.5
		c0.6,1.2,1.4,2.8,2.2,4.5c0.8,1.6,1.6,3.3,2.2,4.5c0.3,0.6,0.5,1.1,0.7,1.5c0.2,0.4,0.2,0.6,0.2,0.6c0.8,1.1,2.5,4.6,4.1,8
		c0.8,1.7,1.5,3.4,2.1,4.7c0.6,1.3,1.1,2.3,1.3,2.6l-1.9-4.2c1.4,2.7,0.9,0.6,0.1-2.1c-0.9-2.7-2.1-6-1.6-5.7
		c-0.9-1.5-1.8-3.3-2.7-5.3c-1-2-2.1-4.2-3.2-6.4c-0.6-1.2-1.2-2.3-1.7-3.5c-0.3-0.6-0.6-1.2-0.9-1.8c-0.3-0.6-0.7-1.2-1-1.8
		c-1.4-2.4-3-4.8-4.6-7.1c-1.2-2.2,1.3,1.7,0.7,0.5c-1.7-2.3-3.8-5.1-7.2-10.5l0.4,0.6c-0.6-0.9-1.2-1.8-1.8-2.7
		c-0.6-0.9-1.3-1.7-1.8-2.5c-1.2-1.6-2.3-3.1-3.4-4.5c-1.1-1.4-2.1-2.9-3.1-4.2c-1.1-1.3-2.1-2.6-3.2-3.9c-1.1-1.3-2.1-2.6-3.2-4
		c-1.1-1.4-2.4-2.7-3.6-4.2c-2.6-2.9-5.4-6.1-9-9.7l0.8,1.3c-3.1-3.1-3.7-3.8-5.1-5.3c-3.9-3.1,8.7,8.6,5,5.8
		c-0.9-1.1-2.7-3.1-5-5.4c-2.3-2.3-5.2-4.7-7.9-7.3c-0.7-0.6-1.4-1.2-2.1-1.9c-0.7-0.6-1.4-1.2-2.1-1.7c-1.3-1.1-2.6-2.2-3.8-3.1
		c-2.3-1.9-4-3.5-4.7-4.2c-5.4-4,1.4,1.5-4.1-2.5l-1.3-1.2l-1.5-0.8c-1.8-1.3-3.1-2.3-4-3c-0.9-0.7-1.3-1.1-1.3-1.3
		c0.9,0.6,2.6,1.6,3.5,2.2c-2.3-1.7-5.7-3.9-8.7-5.8c-1.5-1-3-1.8-4.1-2.5c-1.2-0.7-2-1.2-2.4-1.5c0,0,1.4,0.9,2.7,1.7
		c0.7,0.4,1.4,0.8,1.9,1.2c0.5,0.3,0.8,0.5,0.8,0.5c-2-1.2-4-2.4-6.1-3.6c-1-0.6-2.1-1.2-3.1-1.8c-1.1-0.6-2.1-1.3-3.2-1.8
		c-4.4-2.3-8.8-4.8-13.4-6.9c-2.3-1.1-4.6-2.1-6.9-3.2c-2.3-0.9-4.6-1.9-6.9-2.8c-4.5-1.9-9-3.3-13.2-4.7l1.2,0.6
		c-1.6-0.5-3-1-4.1-1.4c-1.2-0.4-2.2-0.7-3.1-0.9c-1.8-0.6-3.1-1-4.5-1.4c-1.4-0.4-2.8-1-4.7-1.5c-2-0.5-4.5-1.2-8.1-2.1l0.5,0.1
		C310.9,6.7,307,6,303,5.2c3.7,0.6-6.8-1.8-2-1c-0.9-0.1-1.7-0.3-2.5-0.4c-0.7-0.1-1.4-0.2-2-0.3c-1.2-0.1-2.2-0.3-2.9-0.4
		c-1.5-0.2-2.3-0.2-2.9-0.3c-0.6,0-1,0-1.9-0.1c-0.9,0-2.3-0.2-4.7-0.2L282,1.9c-1.7,0-2.5,0-4-0.1c-1.4-0.1-3.3-0.3-7-0.4
		c6.1,0.1-4.7-0.7,2.1-0.6c-3.9-0.4-7.3-0.6-10.3-0.8c-3-0.1-5.6,0-8,0.1c-2.4,0.1-4.5,0-6.4,0.1c-2,0.1-3.8,0.1-5.6-0.1
		c-3.6,0.5-0.2,0.5,3.6,0.4c3.7-0.2,7.9-0.1,5.9,0c1.7,0.1,0.2,0.3-2.3,0.4c-2.5,0.2-6,0.4-8.4,0.5c-1.2,0.1-2.4,0-3.6,0
		c-1.2,0-2.5,0-4.1,0c-1.5,0-3.3,0.1-5.4,0.2c-1.1,0.1-2.3,0.1-3.6,0.2c-1.3,0.1-2.7,0.3-4.3,0.6c1.2-0.2,1.3-0.2,2.5-0.4
		c-2.3,0.2-4.6,0.6-7,1c-1.2,0.2-2.4,0.4-3.7,0.6c-1.3,0.2-2.6,0.5-4,0.7c-3.1,1.1-7.3,1.4-8.1,2.1l11.2-2.3
		c-3.2,0.7-6.2,1.5-9.8,2.4c-1.8,0.4-3.7,1-5.8,1.5c-2.1,0.5-4.4,1.1-7,1.6c0.8-0.3,3.8-1.2,5.9-1.8c-1.5,0.3-3,0.7-4.5,1.1
		c-1.5,0.4-2.9,0.8-4.5,1.2c0.2-0.2,1.1-0.6,2.5-1c1.4-0.4,3.3-0.9,5.3-1.4c2.1-0.5,4.3-1.1,6.5-1.6c2.2-0.5,4.2-0.9,5.9-1.4
		c-1.7,0.2-4.9,0.9-7.3,1.5c-2.4,0.6-3.9,1-2.3,0.3c-2.4,1-5.4,1.7-8.8,2.5c-3.4,0.9-7.2,2-11.1,3.5l0.4-0.5
		c-1.3,0.4-3.8,1.5-6.2,2.3l4.1-1.9c-6.3,2.7-12.6,4-18.6,6.9c6.4-2.7,7.1-2.8,7-2.6c-0.2,0.2-1.2,0.8,1.6-0.1c-2,0.7-3.6,1.5-4.9,2
		c-1.3,0.6-2.4,1-3.4,1.4c-1.9,0.7-3.1,1.1-4.4,1.5c-1.3,0.4-2.6,0.9-4.7,1.7c-2.1,0.9-5,2.1-9.2,4.3c2.3-1.2,8.8-4,5.2-2.1
		c-1.6,0.8-3.6,1.6-5.3,2.4c-1.7,0.9-3.3,1.6-4.3,2.1c-11.1,6.1,1.9-0.6-2.7,2.2c-4,1.6-5.3,3.3-9.9,6.2l-0.2-0.3
		c-1.5,0.9-2.8,1.6-3.7,2.2c-0.9,0.6-1.6,1.1-2.1,1.5c-1,0.7-1.3,1.1-1.6,1.4c-0.5,0.6-0.9,1.1-6.4,4.6l4.2-3.5c0,0-1.4,1-2.8,1.9
		c-0.7,0.5-1.4,1-1.9,1.3c-0.5,0.4-0.8,0.6-0.8,0.6s0.2-0.3,0.4-0.6c0.2-0.3,0.4-0.6,0.4-0.6c-2.9,2.3-4.7,3.8-6.7,5.3
		c-1,0.7-1.9,1.4-3,2.2c-1.1,0.8-2.2,1.8-3.6,2.9c1.5-0.9-0.3,1.1-5.2,5.2c-3.4,2.7,1.5-1.9-5.1,4.2c0.7-0.8,1.4-1.6,2.3-2.5
		c0.5-0.5,1-0.9,1.6-1.5c0.6-0.5,1.3-1,2.1-1.6c0.2-0.4,1.4-1.5,1.6-1.8c-3.8,2.7-8.8,7.8-11.3,10c0.9-0.8,2-1.9,2.7-2.3
		c0,0-2.3,2.3-4.6,4.6c-2.2,2.4-4.4,4.8-4.4,4.8c-1.5,1.4-0.5,0.1,0.6-1.1c-0.9,1-1.7,1.8-2.5,2.7c-0.9,1-1.9,2-3.1,3.5
		c0.5-0.9,0-1,3.8-5.1c0,0-0.5,0.6-1.3,1.4c-0.8,0.8-1.9,2-2.9,3.2c-2,2.4-4,4.8-4,4.8c-0.3,0.3-1.5,1.4-2.4,2.3
		c-0.9,0.9-1.6,1.6-1.1,1c-2.2,2.6-4.8,6-7.5,9.7c-1.3,1.9-2.6,3.8-4,5.7c-1.3,1.9-2.8,3.8-4.1,5.7c-0.2,0.4-0.7,1.3-1.7,2.9
		c-1.2,1.8-2.4,3.5-3.6,5.2c-1.1,1.8-2.2,3.6-3.3,5.4c-1.1,1.8-2.3,3.7-3.4,5.7c-1.1,2-2.1,4.2-3.2,6.5c0,0-0.8,1.2-1.6,2.5
		c-0.8,1.2-1.5,2.5-1.5,2.5c-3.3,7.3,4-6.8-1.5,5.3c-1.9,4.3-2.4,5-2.6,5.1c-0.2,0-0.1-0.6-0.8,0.9c-0.8,2.2-1.8,5.3-3.1,8.7
		c-1.3,3.5-2.6,7.5-4.3,11.5C15,169.1,15.8,167.1,16.7,164.5 M1,261.3c-0.1-1-0.2-2.4-0.3-3.8c0-1.4,0-2.7,0.1-3.4
		c0.2,1.1,0.3,2,0.2,3.2V261.3z M49.3,400.6c-0.9-1.1-2.1-2.9-3.4-5.1C46.9,397,48,398.7,49.3,400.6 M415.4,444.1
		c0,0.1-0.1,0.1-0.1,0.1C411.9,446.8,413.1,445.9,415.4,444.1 M422,438.4c0.6-0.6,0.5-0.6,0.2-0.4c-0.4,0.5-1.8,1.8-3.5,3.3
		C419.3,441,420.2,440.3,422,438.4 M222.6,4.9L220.9,5C224.7,4.4,223.7,4.6,222.6,4.9"/>
	<path class="st0" d="M452.8,404c0,0-0.2,0.3-0.5,0.7c-0.3,0.4-0.7,1-1.1,1.6c-0.9,1.1-1.7,2.2-1.7,2.2c1.7-2.1,2.4-2.8,3.2-3.9
		C452.5,404.6,451.7,405.4,452.8,404"/>
	<path class="st0" d="M480.2,363.8c0.3-0.8,0.7-1.6,1-2.3l-0.2,0.1C479.5,364.8,478.6,367.1,480.2,363.8"/>
	<path class="st0" d="M456.8,400.6c0.3-0.1,0.9-0.9,1.7-2c0.4-0.6,0.9-1.3,1.4-2c0.5-0.8,1-1.6,1.5-2.4c-0.1,0.2-0.3,0.4-0.4,0.6
		c0.1-0.6-0.3,0-1.1,1.1C459.2,397.1,458,398.9,456.8,400.6"/>
	<path class="st0" d="M462,393.4c0.7-1,1.3-2.1,2-3C464.1,389.9,463.1,391.6,462,393.4"/>
	<path class="st0" d="M429.9,430.7c1.4-1.3,0.5-1.1,1.4-1.8c0.6-0.9-1.5,1.4-2.8,3c-0.7,0.8-1.2,1.4-1.1,1.3
		C427.5,433.2,428.2,432.5,429.9,430.7"/>
	<polygon class="st0" points="459.5,398.6 458.4,399.5 457.3,401.5 	"/>
	<path class="st0" d="M439.8,422.6l4.3-4.6c-0.1,0,0.4-0.6,1-1.3C442.5,419.5,439.6,422.7,439.8,422.6"/>
	<path class="st0" d="M445.1,416.7c1.3-1.5,2.5-3,3.1-3.9C447.6,413.5,446.1,415.4,445.1,416.7"/>
	<path class="st0" d="M454.5,405.6c0,0-0.3,0.4-0.6,0.7c-0.3,0.4-0.6,0.7-0.6,0.7l-2.8,3.5c0,0,1-1.2,2-2.4
		C453.6,406.9,454.5,405.6,454.5,405.6"/>
	<path class="st0" d="M481.7,149.9c0,0,0.1,0.3,0.3,0.7c0.2,0.4,0.4,1.1,0.7,1.7c0.5,1.2,0.9,2.4,0.9,2.4l-1.1-3.2
		c0,0-0.2-0.4-0.4-0.8C481.9,150.3,481.7,149.9,481.7,149.9"/>
	<path class="st0" d="M486.1,158.9l0,1.3l1.6,2.7C487.3,161.8,486.3,159.7,486.1,158.9"/>
	<path class="st1" d="M171.2,218.7c-5.3-50.1-54-54.5-91.3-34.2c-38.9,21.1-64.5,65-48.7,60.7c4.7-1.3,33.3-44.7,52.7-51.1
		c-4.1,29.9-7.3,59.5-18.5,87.6c-1.5,3.8-22.4,2.4-31.8,7.4c-17.3,9.2-9,30.9,6.9,30.3c11.2-0.4,26.9-19.3,29.4-18.4
		c13.6,5,31.5,9.5,46.3,8C155.4,304.9,174.8,252.8,171.2,218.7 M36,304c-3.8-7.4,19.5-18.5,26.2-10.6C67,298.9,38.6,314.8,36,304
		 M157.6,256.8c-17.6,47.4-65.5,52.9-76.7,32.1c-5.5-10.2,4.3-41,9.1-69.5c4.6-26.7,4.5-42.9,40.2-37
		C165.2,188.2,168.5,227.5,157.6,256.8"/>
	<path class="st1" d="M485.5,216.7c-1.3,20-17,27.7-45.6,35.2c-3.9,1,2.8-13.6-11.3-23.5c-9.4-6.6-23.2,1.3-25-1
		c-3-3.9,2-5.6,3.1-12c3.1-18.4-24.4-28.2-31.1-12.5c-2.6,6.3-2.2,12.9,7.6,21.8c5.1,4.6,8.5,7.2-4.9,15.1
		c-5.5,3.3-10.5,6.4-15.9,7.7c2-12.7-2.6-34-18.9-33.2c-18.8,1-23.7,18-31,23.9c-14.1,10.6-12.5-9.7-12.9-17.5
		c-0.2-2.7-8.4-2.9-10.5-1.4c-0.9,0.7,0.5,12.9,0.5,13.1c0.7,17.6,4.7,39.8-6.4,54.3c-17.3,22.5-29.8,5.5-29.6-11.5
		c0.2-12,1.9-28.7,9.3-41.1c10.8-18.3,32.8-32.6,34.1-55.4c0.8-13-11.9-16-22.8-10.2c-16.4,8.7-18.7,54.1-24.6,63.3
		c-7.8,12.2-20.1,16.8-21.3,0c-1.3-17.5-21.1-23.3-34.3-10.9c-15.2,14.2-41.1,85.7-2.8,88.3c19.1,1.3,30.8-24.9,33.4-40.9
		c2.6-16.2,8.7-13.7,23.8-21.6c-1.3,8.6-10.6,58.3,11.3,62.2c29.3,5.1,38-33,39.5-46.3c0.9-8.2,10-15.5,7.6-4.3
		c-2.5,12-8.9,23.5-3,38.8c6.4,16.4,24.7,13.9,35.1,5.7c9.4-7.3,17.2-21.4,20.7-31.3c4.5-12.5,26.1-29.5,39.8-34.1
		c11-3.7,19.2-4,24,9.4c5,13.9-47.5,20.6-57,37.6c-7.1,12.7,6.6,26.9,23.8,24.3c27.4-4.1,37.4-21.5,41.5-34c2.5-7.6,4-10.9,9.9-12.8
		c30.8-10.1,35.8-14.2,44.7-24.4c5.7-6.6,9.9-21.1,9.9-29.8C496.3,198.7,486.4,202.2,485.5,216.7 M274.6,182.9
		c6.6-10.6,11.2-2.5,11.2-2.5c6.2,10.8-12.4,33.9-22.3,39.1C264.1,218.7,271.1,188.4,274.6,182.9 M212,284.6
		c-3.7,6.1-10.8,11.9-14.9,12.6c-30.7,4.9-15.4-58.6,2.8-69.9C196,252.9,229,257.1,212,284.6 M218.1,239.2c-2.2,10.6-8,2.2-9.4-3.5
		C206.1,225.1,222,220.5,218.1,239.2 M341.3,286.7c-6.6,11.9-23.4,18.1-28.9,2.8c-4.6-12.7,5-46.5,17-53.6
		c1.6,9.7,10.3,19.4,19.3,22.5C353.9,260.2,345.1,279.8,341.3,286.7 M353.6,244.2c-3.1,10.2-20.6-11.9-14.2-18.3
		C346.9,215.1,357,233.1,353.6,244.2 M399.7,215.2c-1.8,6-7.9,5.7-7.9,5.7c-6.2,0.6-12.4-8.1-9.9-13.2
		C384.9,201.4,401.7,208.1,399.7,215.2 M394,300.4c-6.6,1.6-12.3,1.9-14.6-2.1c-5.6-13,33.8-34.4,44-33.4
		C423.4,264.8,420.1,294,394,300.4"/>
	<path class="st0" d="M204.2,351.8c0-0.8-0.7-1.5-1.5-1.5s-1.5,0.7-1.5,1.5c0,0.8,0.7,1.5,1.5,1.5S204.2,352.6,204.2,351.8"/>
	<path class="st0" d="M216.3,358.6c0.4,0,0.8-0.1,1.2-0.3c0.4-0.2,0.7-0.4,1-0.7c0.3-0.3,0.5-0.6,0.7-1c0.2-0.4,0.3-0.8,0.3-1.2h1
		c0,0.6-0.1,1.1-0.3,1.7c-0.2,0.5-0.5,1-0.9,1.3c-0.4,0.4-0.8,0.7-1.3,0.9c-0.5,0.2-1.1,0.3-1.6,0.3c-0.6,0-1.1-0.1-1.7-0.3
		c-0.5-0.2-1-0.5-1.3-0.9c-0.4-0.4-0.7-0.8-0.9-1.3c-0.2-0.5-0.3-1.1-0.3-1.7V348c0-0.6,0.1-1.1,0.3-1.6c0.2-0.5,0.5-1,0.9-1.3
		c0.4-0.4,0.8-0.7,1.3-0.9c0.5-0.2,1.1-0.3,1.7-0.3c0.6,0,1.1,0.1,1.6,0.3c0.5,0.2,1,0.5,1.3,0.9c0.4,0.4,0.7,0.8,0.9,1.3
		c0.2,0.5,0.3,1.1,0.3,1.6h-1c0-0.4-0.1-0.8-0.3-1.2c-0.2-0.4-0.4-0.7-0.7-1c-0.3-0.3-0.6-0.5-1-0.7c-0.4-0.2-0.8-0.2-1.2-0.2
		c-0.4,0-0.9,0.1-1.2,0.2c-0.4,0.2-0.7,0.4-1,0.7c-0.3,0.3-0.5,0.6-0.7,1c-0.2,0.4-0.3,0.8-0.3,1.2v7.4c0,0.4,0.1,0.9,0.3,1.2
		c0.2,0.4,0.4,0.7,0.7,1c0.3,0.3,0.6,0.5,1,0.7C215.5,358.5,215.9,358.6,216.3,358.6"/>
	<path class="st0" d="M226.9,359.6c-0.6,0-1.1-0.1-1.7-0.3c-0.5-0.2-1-0.5-1.3-0.9c-0.4-0.4-0.7-0.8-0.9-1.3
		c-0.2-0.5-0.3-1.1-0.3-1.7V348c0-0.6,0.1-1.1,0.3-1.6c0.2-0.5,0.5-1,0.9-1.3c0.4-0.4,0.8-0.7,1.3-0.9c0.5-0.2,1.1-0.3,1.7-0.3
		c0.6,0,1.1,0.1,1.6,0.3c0.5,0.2,1,0.5,1.3,0.9c0.4,0.4,0.7,0.8,0.9,1.3c0.2,0.5,0.3,1.1,0.3,1.6v7.4c0,0.6-0.1,1.1-0.3,1.7
		c-0.2,0.5-0.5,1-0.9,1.3c-0.4,0.4-0.8,0.7-1.3,0.9C228,359.5,227.5,359.6,226.9,359.6 M226.9,344.9c-0.4,0-0.9,0.1-1.2,0.2
		c-0.4,0.2-0.7,0.4-1,0.7c-0.3,0.3-0.5,0.6-0.7,1c-0.2,0.4-0.2,0.8-0.2,1.2v7.4c0,0.4,0.1,0.9,0.2,1.2c0.2,0.4,0.4,0.7,0.7,1
		c0.3,0.3,0.6,0.5,1,0.7c0.4,0.2,0.8,0.3,1.2,0.3c0.4,0,0.9-0.1,1.2-0.3c0.4-0.2,0.7-0.4,1-0.7c0.3-0.3,0.5-0.6,0.7-1
		c0.2-0.4,0.3-0.8,0.3-1.2V348c0-0.4-0.1-0.8-0.3-1.2c-0.2-0.4-0.4-0.7-0.7-1c-0.3-0.3-0.6-0.5-1-0.7
		C227.8,344.9,227.4,344.9,226.9,344.9"/>
	<path class="st0" d="M237.5,358.6c0.4,0,0.9-0.1,1.2-0.3c0.4-0.2,0.7-0.4,1-0.7c0.3-0.3,0.5-0.6,0.7-1c0.2-0.4,0.3-0.8,0.3-1.2h1
		c0,0.6-0.1,1.1-0.3,1.7c-0.2,0.5-0.5,1-0.9,1.3c-0.4,0.4-0.8,0.7-1.3,0.9c-0.5,0.2-1.1,0.3-1.6,0.3c-0.6,0-1.1-0.1-1.7-0.3
		c-0.5-0.2-1-0.5-1.3-0.9c-0.4-0.4-0.7-0.8-0.9-1.3c-0.2-0.5-0.3-1.1-0.3-1.7V348c0-0.6,0.1-1.1,0.3-1.6c0.2-0.5,0.5-1,0.9-1.3
		c0.4-0.4,0.8-0.7,1.3-0.9c0.5-0.2,1.1-0.3,1.7-0.3c0.6,0,1.1,0.1,1.6,0.3c0.5,0.2,1,0.5,1.3,0.9c0.4,0.4,0.7,0.8,0.9,1.3
		c0.2,0.5,0.3,1.1,0.3,1.6h-1c0-0.4-0.1-0.8-0.3-1.2c-0.2-0.4-0.4-0.7-0.7-1c-0.3-0.3-0.6-0.5-1-0.7c-0.4-0.2-0.8-0.2-1.2-0.2
		c-0.4,0-0.9,0.1-1.2,0.2c-0.4,0.2-0.7,0.4-1,0.7c-0.3,0.3-0.5,0.6-0.7,1c-0.2,0.4-0.3,0.8-0.3,1.2v7.4c0,0.4,0.1,0.9,0.3,1.2
		c0.2,0.4,0.4,0.7,0.7,1c0.3,0.3,0.6,0.5,1,0.7C236.7,358.5,237.1,358.6,237.5,358.6"/>
	<polygon class="st0" points="251.7,359.5 246.5,351 245,351 245,359.5 243.9,359.5 243.9,336.9 245,336.9 245,350 246.5,350 
		246.6,349.9 250.6,344 251.9,344 247.5,350.6 252.9,359.5 	"/>
	<path class="st0" d="M255.2,351.7v3.7c0,0.4,0.1,0.9,0.2,1.2c0.1,0.4,0.3,0.7,0.6,1c0.2,0.3,0.5,0.5,0.9,0.7
		c0.3,0.2,0.7,0.3,1.1,0.3v1c-0.5,0-1-0.1-1.5-0.3c-0.5-0.2-0.9-0.5-1.2-0.9c-0.3-0.4-0.6-0.8-0.8-1.3c-0.2-0.5-0.3-1.1-0.3-1.7
		v-3.7V345v-1v-4.4h1v4.4h3.4v1h-3.4V351.7z"/>
	<path class="st0" d="M264.6,343.8c0.6,0,1.1,0.1,1.6,0.3c0.5,0.2,0.9,0.5,1.2,0.9c0.4,0.4,0.6,0.8,0.8,1.3c0.2,0.5,0.3,1.1,0.3,1.6
		v3.7v3.7v4.1h-1v-1.3c-0.4,0.4-0.9,0.8-1.4,1.1c-0.5,0.3-1.1,0.4-1.8,0.4c-0.6,0-1.1-0.1-1.7-0.3c-0.5-0.2-1-0.5-1.3-0.9
		c-0.4-0.4-0.7-0.8-0.9-1.3c-0.2-0.5-0.3-1.1-0.3-1.7v-0.9c0-1.3,0.8-2.2,2.4-2.8c0.2-0.1,0.5-0.2,0.9-0.4c0.4-0.2,0.9-0.3,1.5-0.5
		c0.5-0.2,1-0.4,1.5-0.6c0.5-0.2,0.8-0.3,1.1-0.4V348c0-0.9-0.3-1.6-0.8-2.2c-0.5-0.6-1.3-0.9-2.1-0.9c-0.4,0-0.8,0.1-1.2,0.2
		c-0.4,0.2-0.7,0.4-1,0.7c-0.3,0.3-0.5,0.6-0.7,1c-0.2,0.4-0.3,0.8-0.3,1.2h-1c0-0.6,0.1-1.1,0.3-1.6c0.2-0.5,0.5-1,0.9-1.3
		c0.4-0.4,0.8-0.7,1.3-0.9C263.5,343.9,264,343.8,264.6,343.8 M267.5,351.7v-0.8c-0.3,0.1-0.7,0.3-1.2,0.4c-0.4,0.2-0.9,0.3-1.4,0.5
		c-0.4,0.2-0.9,0.3-1.2,0.5c-0.4,0.2-0.7,0.3-0.8,0.3c-0.4,0.1-0.8,0.4-1.2,0.7c-0.4,0.3-0.6,0.7-0.6,1.2v0.9c0,0.4,0.1,0.9,0.3,1.2
		c0.2,0.4,0.4,0.7,0.7,1c0.3,0.3,0.6,0.5,1,0.7c0.4,0.2,0.8,0.3,1.3,0.3c0.4,0,0.8-0.1,1.2-0.3c0.4-0.2,0.7-0.4,1-0.7
		c0.3-0.3,0.5-0.6,0.7-1c0.2-0.4,0.3-0.8,0.3-1.2V351.7z"/>
	<path class="st0" d="M271.7,343.7h1v1.1v14.5h-1v-14.5h-1v-1.1H271.7z M271.9,340.1c-0.2,0-0.4-0.1-0.6-0.2
		c-0.2-0.1-0.2-0.3-0.2-0.6c0-0.2,0.1-0.4,0.2-0.6c0.2-0.1,0.3-0.2,0.6-0.2c0.2,0,0.4,0.1,0.6,0.2c0.1,0.2,0.2,0.3,0.2,0.6
		c0,0.2-0.1,0.4-0.2,0.6C272.3,340.1,272.1,340.1,271.9,340.1"/>
	<rect x="275.9" y="336.9" class="st0" width="1" height="22.5"/>
	<path class="st0" d="M288.5,343.8c0.6,0,1.1,0.1,1.7,0.3c0.5,0.2,1,0.5,1.3,0.9c0.4,0.4,0.7,0.8,0.9,1.3c0.2,0.5,0.3,1.1,0.3,1.6
		v7.4c0,0.6-0.1,1.1-0.3,1.6c-0.2,0.5-0.5,1-0.9,1.3c-0.4,0.4-0.8,0.7-1.3,0.9c-0.5,0.2-1.1,0.3-1.7,0.3c-0.6,0-1.2-0.1-1.8-0.4
		c-0.6-0.3-1-0.6-1.4-1.1v1.3h-1v-4.1V348v-11.1h1v8.3c0.4-0.5,0.9-0.8,1.4-1.1C287.3,343.9,287.9,343.8,288.5,343.8 M291.7,348
		c0-0.4-0.1-0.9-0.2-1.2c-0.2-0.4-0.4-0.7-0.7-1c-0.3-0.3-0.6-0.5-1-0.7c-0.4-0.2-0.8-0.2-1.2-0.2c-0.4,0-0.8,0.1-1.2,0.2
		c-0.4,0.2-0.7,0.4-1,0.7c-0.3,0.3-0.5,0.6-0.7,1c-0.2,0.4-0.3,0.8-0.3,1.2v7.4c0,0.4,0.1,0.9,0.3,1.2c0.2,0.4,0.4,0.7,0.7,1
		c0.3,0.3,0.6,0.5,1,0.7c0.4,0.2,0.8,0.3,1.2,0.3c0.4,0,0.9-0.1,1.2-0.3c0.4-0.2,0.7-0.4,1-0.7c0.3-0.3,0.5-0.6,0.7-1
		c0.2-0.4,0.2-0.8,0.2-1.2V348z"/>
	<path class="st0" d="M299.4,343.8c0.6,0,1.1,0.1,1.6,0.3c0.5,0.2,0.9,0.5,1.2,0.9c0.4,0.4,0.6,0.8,0.8,1.3c0.2,0.5,0.3,1.1,0.3,1.6
		v3.7v3.7v4.1h-1v-1.3c-0.4,0.4-0.9,0.8-1.4,1.1c-0.6,0.3-1.1,0.4-1.8,0.4c-0.6,0-1.1-0.1-1.6-0.3c-0.5-0.2-1-0.5-1.3-0.9
		c-0.4-0.4-0.7-0.8-0.9-1.3c-0.2-0.5-0.3-1.1-0.3-1.7v-0.9c0-1.3,0.8-2.2,2.4-2.8c0.2-0.1,0.5-0.2,1-0.4c0.4-0.2,0.9-0.3,1.5-0.5
		c0.5-0.2,1-0.4,1.5-0.6c0.5-0.2,0.9-0.3,1.1-0.4V348c0-0.9-0.3-1.6-0.8-2.2c-0.5-0.6-1.2-0.9-2.1-0.9c-0.4,0-0.9,0.1-1.2,0.2
		c-0.4,0.2-0.7,0.4-1,0.7c-0.3,0.3-0.5,0.6-0.7,1c-0.2,0.4-0.2,0.8-0.2,1.2h-1c0-0.6,0.1-1.1,0.3-1.6c0.2-0.5,0.5-1,0.9-1.3
		c0.4-0.4,0.8-0.7,1.3-0.9C298.2,343.9,298.8,343.8,299.4,343.8 M302.3,351.7v-0.8c-0.3,0.1-0.7,0.3-1.2,0.4
		c-0.5,0.2-0.9,0.3-1.4,0.5c-0.5,0.2-0.9,0.3-1.3,0.5c-0.4,0.2-0.7,0.3-0.8,0.3c-0.4,0.1-0.8,0.4-1.2,0.7c-0.4,0.3-0.6,0.7-0.6,1.2
		v0.9c0,0.4,0.1,0.9,0.3,1.2c0.2,0.4,0.4,0.7,0.7,1c0.3,0.3,0.6,0.5,1,0.7c0.4,0.2,0.8,0.3,1.2,0.3c0.4,0,0.9-0.1,1.3-0.3
		c0.4-0.2,0.7-0.4,1-0.7c0.3-0.3,0.5-0.6,0.7-1c0.2-0.4,0.3-0.8,0.3-1.2V351.7z"/>
	<path class="st0" d="M311.8,343.8v1h-1.2c-0.4,0-0.9,0.1-1.2,0.2c-0.4,0.2-0.7,0.4-1,0.7c-0.3,0.3-0.5,0.6-0.7,1
		c-0.2,0.4-0.2,0.8-0.2,1.2v3.7v7.8h-1v-7.8V348v-3h-1v-1h1h1v1v0.2c0.8-0.9,1.8-1.4,3.1-1.4H311.8z"/>
	<path class="st0" d="M112.1,343.8v1h-1.2c-0.4,0-0.9,0.1-1.2,0.2c-0.4,0.2-0.7,0.4-1,0.7c-0.3,0.3-0.5,0.6-0.7,1
		c-0.2,0.4-0.3,0.8-0.3,1.2v3.7v7.8h-1v-7.8V348v-3h-1v-1h1h1v1v0.2c0.8-0.9,1.8-1.4,3.1-1.4H112.1z"/>
	<path class="st0" d="M118.9,350.9c-0.2,0.1-0.5,0.2-0.9,0.4c-0.4,0.2-0.9,0.4-1.4,0.5c-0.5,0.2-1,0.4-1.5,0.6
		c-0.5,0.2-0.9,0.3-1.1,0.4v2.7c0,0.4,0.1,0.9,0.3,1.2c0.2,0.4,0.4,0.7,0.7,1c0.3,0.3,0.6,0.5,1,0.7c0.4,0.2,0.8,0.3,1.2,0.3
		c0.4,0,0.9-0.1,1.2-0.3c0.4-0.2,0.7-0.4,1-0.7c0.3-0.3,0.5-0.6,0.7-1c0.2-0.4,0.3-0.8,0.3-1.2h1c0,0.6-0.1,1.1-0.3,1.7
		c-0.2,0.5-0.5,1-0.9,1.3c-0.4,0.4-0.8,0.7-1.3,0.9c-0.5,0.2-1.1,0.3-1.6,0.3c-0.6,0-1.1-0.1-1.7-0.3c-0.5-0.2-1-0.5-1.3-0.9
		c-0.4-0.4-0.7-0.8-0.9-1.3c-0.2-0.5-0.3-1.1-0.3-1.7V348c0-0.6,0.1-1.1,0.3-1.6c0.2-0.5,0.5-1,0.9-1.3c0.4-0.4,0.8-0.7,1.3-0.9
		c0.5-0.2,1.1-0.3,1.7-0.3c0.6,0,1.1,0.1,1.6,0.3c0.5,0.2,1,0.5,1.3,0.9c0.4,0.4,0.7,0.8,0.9,1.3c0.2,0.5,0.3,1.1,0.3,1.6v0
		C121.3,349.3,120.5,350.3,118.9,350.9 M117.1,344.9c-0.4,0-0.9,0.1-1.2,0.2c-0.4,0.2-0.7,0.4-1,0.7c-0.3,0.3-0.5,0.6-0.7,1
		c-0.2,0.4-0.3,0.8-0.3,1.2v3.6c0.3-0.1,0.7-0.3,1.2-0.5c0.5-0.2,0.9-0.4,1.4-0.5c0.5-0.2,0.9-0.3,1.3-0.5c0.4-0.1,0.7-0.3,0.8-0.3
		c0.4-0.1,0.8-0.4,1.1-0.7c0.4-0.3,0.6-0.7,0.6-1.2c0-0.4-0.1-0.9-0.3-1.2c-0.2-0.4-0.4-0.7-0.7-1c-0.3-0.3-0.6-0.5-1-0.7
		C118,344.9,117.5,344.9,117.1,344.9"/>
	<path class="st0" d="M127.7,351.2c0.5,0.2,0.9,0.5,1.4,0.7c0.5,0.3,0.9,0.6,1.3,0.9c0.4,0.3,0.7,0.7,0.9,1.1
		c0.2,0.4,0.4,0.9,0.4,1.4c0,0.6-0.1,1.1-0.3,1.6c-0.2,0.5-0.5,1-0.9,1.3c-0.4,0.4-0.8,0.7-1.3,0.9c-0.5,0.2-1.1,0.3-1.6,0.3
		c-0.6,0-1.1-0.1-1.6-0.3c-0.5-0.2-1-0.5-1.3-0.9c-0.4-0.4-0.7-0.8-0.9-1.3c-0.2-0.5-0.3-1.1-0.3-1.6h1c0,0.4,0.1,0.9,0.3,1.2
		c0.2,0.4,0.4,0.7,0.7,1c0.3,0.3,0.6,0.5,1,0.7c0.4,0.2,0.8,0.3,1.2,0.3c0.4,0,0.8-0.1,1.2-0.3c0.4-0.2,0.7-0.4,1-0.7
		c0.3-0.3,0.5-0.6,0.7-1c0.2-0.4,0.3-0.8,0.3-1.2c0-0.4-0.1-0.7-0.3-1c-0.2-0.3-0.4-0.6-0.8-0.8c-0.3-0.2-0.7-0.5-1.1-0.7
		c-0.4-0.2-0.8-0.4-1.3-0.7c-0.5-0.2-1-0.5-1.4-0.7c-0.5-0.3-0.9-0.6-1.3-0.9c-0.4-0.3-0.7-0.7-0.9-1.1c-0.2-0.4-0.4-0.9-0.4-1.4
		c0-0.6,0.1-1.1,0.3-1.6c0.2-0.5,0.5-1,0.9-1.3c0.4-0.4,0.8-0.7,1.3-0.9c0.5-0.2,1.1-0.3,1.6-0.3c0.6,0,1.1,0.1,1.6,0.3
		c0.5,0.2,1,0.5,1.3,0.9c0.4,0.4,0.7,0.8,0.9,1.3c0.2,0.5,0.3,1.1,0.3,1.6h-1c0-0.4-0.1-0.9-0.3-1.2c-0.2-0.4-0.4-0.7-0.7-1
		c-0.3-0.3-0.6-0.5-1-0.7c-0.4-0.2-0.8-0.2-1.2-0.2c-0.4,0-0.9,0.1-1.2,0.2c-0.4,0.2-0.7,0.4-1,0.7c-0.3,0.3-0.5,0.6-0.7,1
		c-0.2,0.4-0.3,0.8-0.3,1.2c0,0.4,0.1,0.7,0.3,1c0.2,0.3,0.4,0.6,0.8,0.8c0.3,0.3,0.7,0.5,1.1,0.7
		C126.8,350.8,127.2,351,127.7,351.2"/>
	<path class="st0" d="M134.7,351.7v3.7c0,0.4,0.1,0.9,0.2,1.2c0.1,0.4,0.3,0.7,0.6,1c0.2,0.3,0.5,0.5,0.9,0.7
		c0.3,0.2,0.7,0.3,1.1,0.3v1c-0.5,0-1-0.1-1.5-0.3c-0.5-0.2-0.9-0.5-1.2-0.9c-0.3-0.4-0.6-0.8-0.8-1.3c-0.2-0.5-0.3-1.1-0.3-1.7
		v-3.7V345v-1v-4.4h1v4.4h3.4v1h-3.4V351.7z"/>
	<path class="st0" d="M144.1,343.8c0.6,0,1.1,0.1,1.6,0.3c0.5,0.2,0.9,0.5,1.2,0.9c0.3,0.4,0.6,0.8,0.8,1.3c0.2,0.5,0.3,1.1,0.3,1.6
		v3.7v3.7v4.1h-1v-1.3c-0.4,0.4-0.9,0.8-1.4,1.1c-0.5,0.3-1.1,0.4-1.8,0.4c-0.6,0-1.1-0.1-1.6-0.3c-0.5-0.2-1-0.5-1.3-0.9
		c-0.4-0.4-0.7-0.8-0.9-1.3c-0.2-0.5-0.3-1.1-0.3-1.7v-0.9c0-1.3,0.8-2.2,2.4-2.8c0.2-0.1,0.5-0.2,1-0.4c0.5-0.2,0.9-0.3,1.4-0.5
		c0.5-0.2,1-0.4,1.5-0.6c0.5-0.2,0.9-0.3,1.1-0.4V348c0-0.9-0.3-1.6-0.8-2.2c-0.5-0.6-1.2-0.9-2.1-0.9c-0.4,0-0.9,0.1-1.2,0.2
		c-0.4,0.2-0.7,0.4-1,0.7c-0.3,0.3-0.5,0.6-0.7,1c-0.2,0.4-0.3,0.8-0.3,1.2h-1c0-0.6,0.1-1.1,0.3-1.6c0.2-0.5,0.5-1,0.9-1.3
		c0.4-0.4,0.8-0.7,1.3-0.9C143,343.9,143.5,343.8,144.1,343.8 M147,351.7v-0.8c-0.3,0.1-0.7,0.3-1.2,0.4c-0.5,0.2-0.9,0.3-1.4,0.5
		c-0.5,0.2-0.9,0.3-1.3,0.5c-0.4,0.2-0.6,0.3-0.8,0.3c-0.4,0.1-0.8,0.4-1.2,0.7c-0.4,0.3-0.6,0.7-0.6,1.2v0.9c0,0.4,0.1,0.9,0.3,1.2
		c0.2,0.4,0.4,0.7,0.7,1c0.3,0.3,0.6,0.5,1,0.7c0.4,0.2,0.8,0.3,1.2,0.3c0.4,0,0.9-0.1,1.2-0.3c0.4-0.2,0.7-0.4,1-0.7
		c0.3-0.3,0.5-0.6,0.7-1c0.2-0.4,0.3-0.8,0.3-1.2V351.7z"/>
	<path class="st0" d="M158.8,344v7.7v3.7v4.1h-1v-1.3c-0.4,0.5-0.9,0.8-1.4,1.1c-0.5,0.3-1.1,0.4-1.8,0.4c-0.6,0-1.1-0.1-1.6-0.3
		c-0.5-0.2-1-0.5-1.3-0.9c-0.4-0.4-0.7-0.8-0.9-1.3c-0.2-0.5-0.3-1.1-0.3-1.6v-3.7V344h1v7.7v3.7c0,0.4,0.1,0.9,0.3,1.2
		c0.2,0.4,0.4,0.7,0.7,1c0.3,0.3,0.6,0.5,1,0.7c0.4,0.2,0.8,0.3,1.2,0.3c0.4,0,0.9-0.1,1.2-0.3c0.4-0.2,0.7-0.4,1-0.7
		c0.3-0.3,0.5-0.6,0.7-1c0.2-0.4,0.3-0.8,0.3-1.2v-3.7V344H158.8z"/>
	<path class="st0" d="M167.5,343.8v1h-1.2c-0.4,0-0.9,0.1-1.2,0.2c-0.4,0.2-0.7,0.4-1,0.7c-0.3,0.3-0.5,0.6-0.7,1
		c-0.2,0.4-0.3,0.8-0.3,1.2v3.7v7.8h-1v-7.8V348v-3h-1v-1h1h1v1v0.2c0.8-0.9,1.8-1.4,3.1-1.4H167.5z"/>
	<path class="st0" d="M172.6,343.8c0.6,0,1.1,0.1,1.6,0.3c0.5,0.2,0.9,0.5,1.2,0.9c0.3,0.4,0.6,0.8,0.8,1.3c0.2,0.5,0.3,1.1,0.3,1.6
		v3.7v3.7v4.1h-1v-1.3c-0.4,0.4-0.9,0.8-1.4,1.1c-0.5,0.3-1.1,0.4-1.8,0.4c-0.6,0-1.1-0.1-1.7-0.3c-0.5-0.2-1-0.5-1.3-0.9
		c-0.4-0.4-0.7-0.8-0.9-1.3c-0.2-0.5-0.3-1.1-0.3-1.7v-0.9c0-1.3,0.8-2.2,2.4-2.8c0.2-0.1,0.5-0.2,1-0.4c0.5-0.2,0.9-0.3,1.4-0.5
		c0.5-0.2,1-0.4,1.5-0.6c0.5-0.2,0.8-0.3,1.1-0.4V348c0-0.9-0.3-1.6-0.8-2.2c-0.5-0.6-1.2-0.9-2.1-0.9c-0.4,0-0.9,0.1-1.2,0.2
		c-0.4,0.2-0.7,0.4-1,0.7c-0.3,0.3-0.5,0.6-0.7,1c-0.2,0.4-0.3,0.8-0.3,1.2h-1c0-0.6,0.1-1.1,0.3-1.6c0.2-0.5,0.5-1,0.9-1.3
		c0.4-0.4,0.8-0.7,1.3-0.9C171.5,343.9,172,343.8,172.6,343.8 M175.5,351.7v-0.8c-0.3,0.1-0.7,0.3-1.2,0.4c-0.5,0.2-0.9,0.3-1.4,0.5
		c-0.5,0.2-0.9,0.3-1.3,0.5c-0.4,0.2-0.7,0.3-0.8,0.3c-0.4,0.1-0.8,0.4-1.2,0.7c-0.4,0.3-0.6,0.7-0.6,1.2v0.9c0,0.4,0.1,0.9,0.3,1.2
		c0.2,0.4,0.4,0.7,0.7,1c0.3,0.3,0.6,0.5,1,0.7c0.4,0.2,0.8,0.3,1.2,0.3c0.4,0,0.8-0.1,1.2-0.3c0.4-0.2,0.7-0.4,1-0.7
		c0.3-0.3,0.5-0.6,0.7-1c0.2-0.4,0.3-0.8,0.3-1.2V351.7z"/>
	<path class="st0" d="M183,343.8c0.6,0,1.1,0.1,1.7,0.3c0.5,0.2,1,0.5,1.3,0.9c0.4,0.4,0.7,0.8,0.9,1.3c0.2,0.5,0.3,1.1,0.3,1.6v3.7
		v7.8h-1v-7.8V348c0-0.4-0.1-0.8-0.3-1.2c-0.2-0.4-0.4-0.7-0.7-1c-0.3-0.3-0.6-0.5-1-0.7c-0.4-0.2-0.8-0.2-1.2-0.2
		c-0.4,0-0.9,0.1-1.2,0.2c-0.4,0.2-0.7,0.4-1,0.7c-0.3,0.3-0.5,0.6-0.7,1c-0.2,0.4-0.3,0.8-0.3,1.2v3.7v7.8h-1v-7.8V348v-4h1v1.3
		c0.4-0.5,0.9-0.8,1.4-1.1C181.7,343.9,182.3,343.8,183,343.8"/>
	<path class="st0" d="M190.4,351.7v3.7c0,0.4,0.1,0.9,0.2,1.2c0.1,0.4,0.3,0.7,0.6,1c0.2,0.3,0.5,0.5,0.9,0.7
		c0.3,0.2,0.7,0.3,1.1,0.3v1c-0.5,0-1-0.1-1.5-0.3c-0.5-0.2-0.9-0.5-1.2-0.9c-0.3-0.4-0.6-0.8-0.8-1.3c-0.2-0.5-0.3-1.1-0.3-1.7
		v-3.7V345v-1v-4.4h1v4.4h3.4v1h-3.4V351.7z"/>
</g>
</svg>
