<?xml version="1.0" encoding="utf-8"?>
<!-- Generator: Adobe Illustrator 25.0.1, SVG Export Plug-In . SVG Version: 6.00 Build 0)  -->
<svg version="1.1" id="Réteg_1" xmlns="http://www.w3.org/2000/svg" xmlns:xlink="http://www.w3.org/1999/xlink" x="0px" y="0px"
	 viewBox="0 0 470.3 106.3" style="enable-background:new 0 0 470.3 106.3;" xml:space="preserve">
<style type="text/css">
	.st0{fill-rule:evenodd;clip-rule:evenodd;fill:#AEAFB3;}
</style>
<g id="Layer_x0020_1">
	<g id="_749998848">
		<path class="st0" d="M80.2,0c6.8,0.2,13.6,0.7,20.3,1c-0.3,5.4-3.7,73.6-4,73.5C91.6,50.4,85.3,24.1,80.2,0z"/>
		<path class="st0" d="M1.1,3.6C24.9,5.8,48.9,9,72.7,10.9C46.9,16.1,25.9,19,0,23.9C0.4,17.1,0.8,10.4,1.1,3.6z"/>
		<path class="st0" d="M239.2,18.1c2.1-0.1,4.2-0.1,6.4-0.1c-0.8,3.1-1.5,6.9-2.4,9.9c-1.7,0-4.9,0.1-6.6,0.1
			C237.5,25,238.5,21.4,239.2,18.1z"/>
		<path class="st0" d="M250.5,18c2.1,0,4.3,0.1,6.4,0.1c-0.7,2.9-2,7.6-2.5,10.1c-1.7-0.1-4.7,0-6.4-0.1
			C248.3,27.5,249.6,21.4,250.5,18L250.5,18z"/>
		<path class="st0" d="M19.4,31.9c18.4-3.6,36.7-7.7,55-11.6c0.2,0.1,0.6,0.3,0.8,0.4C77.6,34,80.7,47,83.4,60.2
			c1,5.1,2.1,10.2,3.4,15.3C68.5,79.7,50,83.3,31.6,87.4c-0.6-0.9-0.7-2-1-3C26.9,66.9,23.1,49.4,19.4,31.9z"/>
		<path class="st0" d="M128.7,33.2c0.4-2.8,2.9-5.2,5.8-5c9.9,0,19.8,0,29.7,0c2.9-0.1,6.1,1.5,7,4.4c1,3.2-0.2,6.5-0.6,9.7
			c-2.7,0-5.5,0-8.2,0c-0.2-0.3-0.7-0.9-0.9-1.2c-0.2-1,0.9-3.3-0.7-3.4c-7.8-0.3-15.6,0-23.4-0.2c-2,11.9-4.2,23.8-6.2,35.6
			c7.3-0.4,15.2,1.4,21.8-2.4c3.8-2.1,4.6-6.7,5.1-10.7c-4.8-0.1-9.5,0.1-14.3,0c-0.8,0-1.5-0.6-2.2-1c0.6-2.8,1.1-5.5,1.5-8.3
			c7.1,0,14.1-0.1,21.2,0c2.8-0.2,4.8,2.8,3.9,5.3c-1.2,5.9-1.4,12.3-4.9,17.4c-2.7,4.1-7.1,6.7-11.7,8c-6.7,1.9-13.7,1.2-20.5,1.4
			c-2.4-0.1-4.9,0.2-7.3-0.2c-2.2-0.5-3.4-3.1-2.8-5.2C123.5,62.6,126.1,47.9,128.7,33.2L128.7,33.2z"/>
		<path class="st0" d="M176.4,28.4c3,0,5.9,0,8.9,0.1c2.7,8.6,5.6,17.2,8.4,25.8c5.9-8.5,11.5-17.3,17.3-25.9c2.8,0,5.7,0,8.5,0
			c0.2,0.4,0.7,1.2,1,1.6C212.7,42,204.8,54,197,66c-0.9,1.3-1,2.9-1.3,4.4c-0.7,4-1.4,8-2.1,12c-2.8,0-5.7,0-8.5,0
			c-0.2-0.8-0.7-1.7-0.5-2.6c0.6-4,1.5-8.1,2.1-12.1c0.3-1.2-0.1-2.3-0.4-3.4c-3.7-11.5-7.2-23.1-10.8-34.6
			C175.8,29.4,176.2,28.7,176.4,28.4L176.4,28.4z"/>
		<path class="st0" d="M221.7,40.4c1.4-6.9,8-12,14.9-12.3c-0.7,3.2-1.5,6.3-2.1,9.5c-1,0.8-2.3,1.4-3.1,2.5c-0.6,1.2-0.8,2.5-1,3.8
			c-1.4,8.1-2.8,16.2-4.3,24.3c-0.2,1.6-0.7,4.1,1.4,4.7c4.6,0.7,9.4,0.1,14,0.3c2.7-0.1,6.3,0.6,8.1-2.1c1.3-2.2,1.3-4.9,1.8-7.3
			c1.2-6.9,2.4-13.7,3.6-20.6c0.8-3.5,0.4-4.9-2.8-5.5c0.8-3.1,1.7-6.3,2.2-9.4c3.3,0.2,6.5,1.6,8.4,4.3c2,2.6,2.4,6.2,1.8,9.3
			c-1.6,8.9-3.2,17.9-4.7,26.8c-0.8,7.4-7.4,13.8-14.9,13.9c-5.7,0.1-11.3,0-17,0c-3.2,0.1-6.5-0.9-8.7-3.2c-2.6-2.5-3.5-6.5-2.8-10
			C218.2,59.8,219.9,50.1,221.7,40.4L221.7,40.4z"/>
		<path class="st0" d="M243.2,28c1.2,0,3.7,0.2,4.8,0.2c-0.6,2.7-1.5,7.5-2.1,9.6c-1.4,0-3.4-0.1-4.9-0.1
			C241.8,34.4,242.4,31.1,243.2,28z"/>
		<path class="st0" d="M271.1,37.3c0.8-5.1,5.7-8.9,10.7-8.9c7.3,0,14.7,0,22,0c5.7,0.1,10.5,5.5,10,11.2c-0.5,4.8-1.6,9.5-2.4,14.3
			c-0.7,3.5-0.8,7.2-2.9,10.3c-1.8,2.9-4.6,4.9-7.4,6.7c1,3.5,2.5,6.8,3.3,10.3c-0.2,0.3-0.6,0.9-0.7,1.2c-3,0.4-5.9,0.1-8.9,0.1
			c-1.2-3.5-2.4-7.1-3.5-10.6c-5.6,0-11.2,0-16.8,0c-0.7,3.5-1.3,7.1-1.9,10.6c-2.8,0-5.6,0.2-8.4-0.1c-1-1-0.6-2.5-0.4-3.7
			C266.3,64.9,268.6,51.1,271.1,37.3L271.1,37.3z M280.4,37.6c6.6-0.1,13.3,0,19.9,0c1.4,0,3.3,0.1,3.9,1.7c0.3,1.3-0.1,2.6-0.2,3.9
			c-1,5.2-1.8,10.5-2.8,15.6c-0.4,2.4-2.8,4.2-5.2,4c-6.7,0-13.4,0-20,0C277.5,54.3,279,46,280.4,37.6z"/>
		<path class="st0" d="M333.6,29.8c7.7-1.7,16.4-1,22.6,4.3c-1.8,1.8-3.3,3.8-5.3,5.4c-2.2-1.1-4.2-2.8-6.7-3.1
			c-5.8-1-12.4-0.6-17,3.5c-2,1.7-3.7,4.4-2.6,7.1c0.6,2.2,3.1,2.6,5,3.1c6,1.4,11.9,2.9,17.8,4.8c3.2,1,6.4,3.4,6.8,7
			c0.5,4.8-1.2,9.9-4.5,13.4c-4.7,5-11.9,6.5-18.5,6.7c-6.8,0-14.3-1.2-19.3-6.2c2.1-1.7,4.2-3.3,6.4-4.9c6.4,4.4,14.8,5.1,22.1,2.9
			c3.7-1.1,6.6-4.6,6.5-8.4c-0.2-2-2.1-3.3-3.9-3.8c-5.5-1.6-11.1-3-16.7-4.5c-2.4-0.7-5-1.4-6.8-3.2c-3-2.9-3.6-7.7-1.9-11.4
			C320.5,35.8,326.7,31.3,333.6,29.8L333.6,29.8z"/>
		<path class="st0" d="M415.9,29.3c4.9-0.2,9.8,0,14.7-0.1c3.3,0,6.9,0,9.6,2.2c2.9,2.2,4,6.1,3.3,9.6c-1.4,8.5-3,17.1-4.5,25.6
			c-0.4,2.3-0.7,4.7-1.8,6.8c-2.3,4.7-7.2,8.1-12.4,8.2c-5.7,0.1-11.3,0-16.9,0.1c-3.1,0.1-6.3-0.8-8.3-3.2c-2.2-2.4-2.7-6-2.1-9.1
			c1.4-8.4,3-16.8,4.4-25.3c0.4-2.6,0.8-5.2,2.2-7.5C406.6,32.4,411.1,29.5,415.9,29.3L415.9,29.3z M413.2,37.1
			c2.7-0.8,5.5-0.4,8.3-0.5c4,0.1,8-0.3,12,0.2c2.3,0.4,3.3,2.9,2.7,5c-1.5,9-3.1,18-4.7,26.9c-0.3,2.9-2.7,5.4-5.7,5.4
			c-5.7,0.1-11.4,0.1-17.1,0c-2.5,0.2-4.5-2.3-3.9-4.7c1.5-9,3.2-18,4.7-27.1C409.8,40.2,411,38,413.2,37.1L413.2,37.1z"/>
		<path class="st0" d="M451.3,29.2c2.4,0,4.8,0,7.3,0c-2.7,15-5.2,29.9-8,44.9c6.6,0.2,13.1,0.1,19.7,0.1c-0.4,2.5-0.8,5-1.3,7.5
			c-7.8-0.2-15.7,0.1-23.5-0.1c-2.3,0.1-3.3-2.6-2.6-4.5C445.7,61.2,448.4,45.2,451.3,29.2L451.3,29.2z"/>
		<path class="st0" d="M364.3,29.5c8.6-0.1,17.3,0,26-0.1c2,0.1,4.4-0.1,5.9,1.5c1.8,2,2,5,1.4,7.6c-0.7,3.1-3.3,5.2-5.4,7.4
			c-8.7,9.5-17.6,18.8-26.3,28.3c8,0,16,0,23.9,0c-0.4,2.5-0.8,4.9-1.2,7.4c-10.4,0-20.7,0.1-31,0c-1.7,0.3-3.1-1.4-2.8-3
			c0.3-2.8,2.4-5,4.2-7.1c9.7-10.4,19.3-20.8,29-31.2c0.9-0.9,1.5-2.2,1.8-3.5c-8.9-0.4-17.8,0-26.7-0.2
			C363.5,34.3,363.9,31.9,364.3,29.5L364.3,29.5z"/>
		<path class="st0" d="M9.5,32.4c2.5,12.9,13,61.1,15.7,73.9c-6.8-0.3-13.5-0.7-20.3-1C6,85.9,8.3,52.6,9.5,32.4z"/>
		<path class="st0" d="M31.3,97.3c24.1-5,50.9-11.3,75-16.3c-0.4,6.8-0.7,13.5-1.1,20.3C99.7,101,31.3,97.7,31.3,97.3z"/>
	</g>
</g>
</svg>
