<?xml version="1.0" encoding="UTF-8" standalone="no"?>
<!-- Created with Inkscape (http://www.inkscape.org/) -->

<svg
   xmlns:dc="http://purl.org/dc/elements/1.1/"
   xmlns:cc="http://creativecommons.org/ns#"
   xmlns:rdf="http://www.w3.org/1999/02/22-rdf-syntax-ns#"
   xmlns:svg="http://www.w3.org/2000/svg"
   xmlns="http://www.w3.org/2000/svg"
   xmlns:sodipodi="http://sodipodi.sourceforge.net/DTD/sodipodi-0.dtd"
   xmlns:inkscape="http://www.inkscape.org/namespaces/inkscape"
   width="240"
   height="186"
   viewBox="0 0 63.499999 49.212501"
   version="1.1"
   id="svg8"
   inkscape:version="0.92.1 r15371"
   sodipodi:docname="laguna_logo.svg">
  <defs
     id="defs2" />
  <sodipodi:namedview
     id="base"
     pagecolor="#ffffff"
     bordercolor="#666666"
     borderopacity="1.0"
     inkscape:pageopacity="0.0"
     inkscape:pageshadow="2"
     inkscape:zoom="2.7772659"
     inkscape:cx="182.85716"
     inkscape:cy="105.71427"
     inkscape:document-units="mm"
     inkscape:current-layer="layer1"
     showgrid="false"
     units="px"
     inkscape:window-width="1920"
     inkscape:window-height="1137"
     inkscape:window-x="-8"
     inkscape:window-y="-8"
     inkscape:window-maximized="1" />
  <metadata
     id="metadata5">
    <rdf:RDF>
      <cc:Work
         rdf:about="">
        <dc:format>image/svg+xml</dc:format>
        <dc:type
           rdf:resource="http://purl.org/dc/dcmitype/StillImage" />
        <dc:title></dc:title>
      </cc:Work>
    </rdf:RDF>
  </metadata>
  <g
     inkscape:label="Layer 1"
     inkscape:groupmode="layer"
     id="layer1"
     transform="translate(0,-247.78748)">
    <g
       id="g4565"
       transform="matrix(0.69408506,0,0,0.69408506,-1.3473919,89.468019)">
      <path
         inkscape:connector-curvature="0"
         id="path4497"
         style="fill:#13234d;fill-opacity:1;fill-rule:evenodd;stroke:none;stroke-width:0.35277778"
         d="m 52.425995,288.12726 c -1.735702,0 -3.101587,-0.73959 -3.747276,-2.0291 -0.5963,-1.19119 -0.563915,-2.61112 -0.535093,-3.8638 0.0058,-0.26832 0.01217,-0.53312 0.01217,-0.79121 v -6.04308 h 3.983707 l -7.05e-4,0.37457 c 0,0 -0.0025,1.92331 -7.1e-5,3.87562 l 3.53e-4,0.5963 c -3.18e-4,1.19938 -3.53e-4,2.33229 0.06862,2.9337 0.09539,0.82568 0.432294,1.3601 1.0027,1.588 0.538586,0.21519 1.311875,0.21519 2.0701,0.008 0.338879,-0.0921 0.651087,-0.21248 0.928794,-0.35751 0.04329,-0.0227 0.09938,-0.0476 0.161184,-0.075 0.06692,-0.0297 0.193498,-0.0856 0.259715,-0.12958 v -8.81439 h 3.960177 v 12.38158 h -3.960177 v -1.36959 c -1.055723,0.78638 -2.167608,1.53568 -3.558999,1.6812 -0.215617,0.0225 -0.432294,0.034 -0.645124,0.034 z" />
      <path
         inkscape:connector-curvature="0"
         id="path4499"
         style="fill:#13234d;fill-opacity:1;fill-rule:evenodd;stroke:none;stroke-width:0.35277778"
         d="m 76.890322,287.78165 h -3.984096 l 7.06e-4,-0.37419 c 0,-3.9e-4 0.0028,-1.92292 0,-3.87573 l -3.53e-4,-0.59608 c 3.53e-4,-1.19948 3.53e-4,-2.33239 -0.06861,-2.93381 -0.0949,-0.82578 -0.431906,-1.35999 -1.002207,-1.58789 -0.538691,-0.2153 -1.312086,-0.21449 -2.070276,-0.009 -0.338914,0.0924 -0.651016,0.21286 -0.928723,0.358 -0.0435,0.0225 -0.09948,0.0475 -0.161184,0.0749 -0.06699,0.0297 -0.193604,0.0856 -0.259785,0.12968 l 7e-5,8.81391 h -3.960071 v -12.38158 h 3.960071 v 1.36997 c 1.055723,-0.78648 2.167608,-1.53567 3.559105,-1.68158 0.215511,-0.0222 0.432293,-0.0337 0.644595,-0.0337 1.736513,0 3.10201,0.73977 3.747805,2.02917 0.596406,1.19119 0.56381,2.61112 0.535094,3.8638 -0.0058,0.26833 -0.01217,0.53323 -0.01217,0.79111 v 6.0428 z" />
      <path
         inkscape:connector-curvature="0"
         id="path4501"
         style="fill:#13234d;fill-opacity:1;fill-rule:evenodd;stroke:none;stroke-width:0.35277778"
         d="m 87.536203,281.98434 c -0.960403,0.0729 -1.953296,0.14859 -2.845788,0.41501 -0.438891,0.13071 -1.188191,0.47399 -1.27949,1.3038 -0.0593,0.53901 0.0356,1.2494 0.8255,1.57289 0.327695,0.13392 0.683295,0.20211 1.056675,0.20211 0.828922,0 1.734115,-0.33539 2.50691,-0.9252 v -2.58889 c 0,0 -0.175789,0.0135 -0.263807,0.0203 z m -3.91661,6.14571 c -0.954299,0 -1.823085,-0.23661 -2.512695,-0.68421 -1.418695,-0.91998 -2.050203,-2.62569 -1.609901,-4.34488 0.359727,-1.4036 1.514898,-2.36612 3.434115,-2.86251 1.554692,-0.40111 3.19091,-0.49379 4.773613,-0.5835 l 0.129081,-0.008 c 0,-0.002 -3.53e-4,-0.005 -7.06e-4,-0.007 -0.0066,-0.0602 -0.01217,-0.11652 -0.01348,-0.1633 -0.0044,-0.1475 -0.02921,-0.3012 -0.07341,-0.45671 -0.07761,-0.27351 -0.248391,-0.52041 -0.481083,-0.69522 -0.510998,-0.38449 -1.259099,-0.48489 -1.99143,-0.53597 -0.16757,-0.0118 -0.333693,-0.0175 -0.498369,-0.0175 -1.394707,0 -2.714414,0.41469 -3.820901,0.8207 l -0.503026,0.1838 3.53e-4,-3.12321 0.467607,-0.096 c 0.189582,-0.0392 0.374297,-0.0768 0.485881,-0.0979 0.705096,-0.1312 1.637488,-0.29122 2.596303,-0.36272 0.559011,-0.0416 1.066306,-0.0614 1.550599,-0.0614 1.212003,0 2.252416,0.12771 3.18001,0.39 0.913694,0.25851 1.593603,0.64382 2.077402,1.17821 0.543101,0.59848 0.841481,1.40758 0.913271,2.47279 0.01101,0.43759 0.0093,0.8594 0.0081,1.2815 l -7.06e-4,7.4246 h -3.930085 v -1.30771 c -0.611717,0.47921 -1.248586,0.95729 -1.989384,1.24512 -0.692009,0.26868 -1.449423,0.41099 -2.191103,0.41099 h 7e-5 z" />
      <path
         inkscape:connector-curvature="0"
         id="path4503"
         style="fill:#13234d;fill-opacity:1;fill-rule:evenodd;stroke:none;stroke-width:0.35277778"
         d="m 24.800215,281.98434 c -0.960896,0.0729 -1.953401,0.14859 -2.846599,0.41501 -0.438503,0.13071 -1.188015,0.47399 -1.279208,1.3038 -0.05941,0.53901 0.0356,1.2494 0.825712,1.57289 0.327907,0.13392 0.682978,0.20211 1.056393,0.20211 0.82931,0 1.733797,-0.33539 2.506804,-0.9252 v -2.58889 c 0,0 -0.175119,0.0135 -0.263102,0.0203 z m -3.916892,6.14571 c -0.954122,0 -1.823014,-0.23661 -2.5128,-0.68421 -1.418308,-0.91998 -2.050204,-2.62569 -1.610219,-4.34488 0.359904,-1.4036 1.515004,-2.36612 3.434503,-2.86251 1.554621,-0.40111 3.191016,-0.49379 4.773013,-0.5835 l 0.129681,-0.008 c -4.94e-4,-0.002 -7.76e-4,-0.005 -7.76e-4,-0.007 -0.0068,-0.0602 -0.0127,-0.11652 -0.01351,-0.1633 -0.0048,-0.1475 -0.02932,-0.3012 -0.0737,-0.45671 -0.07772,-0.27351 -0.248215,-0.52041 -0.481295,-0.69522 -0.51061,-0.38449 -1.258923,-0.48489 -1.990725,-0.53597 -0.167993,-0.0118 -0.333692,-0.0175 -0.498686,-0.0175 -1.394496,0 -2.714096,0.41469 -3.821219,0.8207 l -0.502673,0.1838 7.76e-4,-3.12321 0.467713,-0.096 c 0.189512,-0.0392 0.373803,-0.0768 0.485211,-0.0979 0.705202,-0.1312 1.637594,-0.29122 2.596479,-0.36272 0.559294,-0.0416 1.066306,-0.0614 1.550706,-0.0614 1.212215,0 2.252415,0.12771 3.179903,0.39 0.913695,0.25851 1.593109,0.64382 2.077191,1.17821 0.542996,0.59848 0.841904,1.40758 0.913306,2.47279 0.01111,0.43759 0.0095,0.8594 0.0082,1.28111 l -7.06e-4,7.42499 h -3.930402 v -1.30771 c -0.611223,0.47921 -1.248622,0.95729 -1.989491,1.24512 -0.691303,0.26868 -1.448823,0.41099 -2.190503,0.41099 z" />
      <path
         inkscape:connector-curvature="0"
         id="path4505"
         style="fill:#13234d;fill-opacity:1;fill-rule:evenodd;stroke:none;stroke-width:0.35277778"
         d="m 38.792404,277.95365 c -1.517509,0.0294 -2.578206,0.83841 -2.911192,2.22031 -0.292206,1.21179 -0.196709,3.32458 0.936201,4.012 0.434199,0.2631 0.930099,0.3967 1.473482,0.3967 0.736918,0 1.559525,-0.2485 2.335213,-0.70362 v -5.61699 c -0.518901,-0.20218 -1.117,-0.30921 -1.732315,-0.30921 l -0.101389,7e-4 z m -1.10049,14.50678 c -0.562398,0 -1.149597,-0.029 -1.794087,-0.0885 l -0.325014,-0.0285 c -0.712399,-0.0623 -1.650718,-0.19191 -2.585014,-0.41779 l 4.94e-4,-3.30052 c 0,0 1.174926,0.46302 2.159635,0.70651 0.803769,0.19851 1.518884,0.27188 2.17498,0.27188 0.685412,0 1.304608,-0.10149 1.840089,-0.30208 1.272505,-0.47611 1.440004,-1.6982 1.460606,-2.98651 -0.889,0.65641 -1.889901,1.21303 -3.175494,1.27959 -0.133914,0.007 -0.268287,0.0107 -0.403084,0.0107 -1.43771,0 -2.671727,-0.40682 -3.569229,-1.17609 -1.051172,-0.90103 -1.648989,-2.32251 -1.776977,-4.22483 -0.13282,-1.97298 0.176001,-3.46749 0.970704,-4.70327 0.826981,-1.28521 2.204402,-2.15413 3.780084,-2.38372 0.297286,-0.0431 0.60131,-0.0653 0.903005,-0.0653 1.134498,0 2.270584,0.31238 3.252294,0.88791 l 0.140899,-0.53989 h 3.841221 v 9.30659 c 0,0.20659 0.0021,0.41441 0.0041,0.6229 0.01249,1.15701 0.02519,2.3538 -0.333304,3.4998 -0.505813,1.62049 -1.728011,2.774 -3.440889,3.24767 -0.931298,0.25764 -1.953224,0.3834 -3.124517,0.3834 h -3.53e-4 z" />
      <path
         inkscape:connector-curvature="0"
         id="path4507"
         style="fill:#13234d;fill-opacity:1;fill-rule:evenodd;stroke:none;stroke-width:0.35277778"
         d="m 3.3809951,287.78165 v -16.4193 h 4.2280063 v 13.25008 h 7.6118156 v 3.16922 z" />
      <path
         inkscape:connector-curvature="0"
         id="path4509"
         style="fill:#13234d;fill-opacity:1;fill-rule:evenodd;stroke:none;stroke-width:0.35277778"
         d="m 91.144308,271.19337 h 0.208315 c 0.243593,0 0.440796,-0.0809 0.440796,-0.2782 0,-0.17332 -0.127811,-0.28942 -0.405518,-0.28942 -0.115605,0 -0.197309,0.0119 -0.243593,0.023 z m -0.0109,1.06637 h -0.441113 v -1.9003 c 0.174025,-0.023 0.41723,-0.0579 0.730532,-0.0579 0.359269,0 0.521194,0.0579 0.648688,0.15061 0.115711,0.0809 0.197202,0.21999 0.197202,0.40509 0,0.23241 -0.174095,0.38301 -0.394123,0.4524 v 0.0228 c 0.185208,0.0579 0.277707,0.20898 0.336127,0.46348 0.058,0.2897 0.103893,0.39401 0.1385,0.46379 H 91.8856 c -0.05768,-0.0698 -0.09218,-0.23188 -0.150178,-0.46379 -0.0345,-0.19661 -0.150318,-0.28939 -0.394229,-0.28939 h -0.207786 z m 0.289489,-2.50288 c -0.823277,0 -1.460076,0.68378 -1.460076,1.5174 0,0.84681 0.636799,1.51828 1.482795,1.51828 0.823101,0.0118 1.4478,-0.67147 1.4478,-1.50639 1.06e-4,-0.84551 -0.624699,-1.52929 -1.459618,-1.52929 z m 0.02272,-0.3821 c 1.078477,0 1.935304,0.834 1.935304,1.8995 1.06e-4,1.0663 -0.856827,1.9123 -1.947122,1.9123 -1.089095,0 -1.957775,-0.846 -1.957775,-1.9123 0,-1.0656 0.86868,-1.8995 1.957775,-1.8995 z" />
      <path
         inkscape:connector-curvature="0"
         id="path4511"
         style="fill:#1c3c7e;fill-opacity:1;fill-rule:evenodd;stroke:none;stroke-width:0.35277778"
         d="m 56.617912,258.24886 c -8.2659,-2.43851 -16.078094,-8.07099 -24.365408,-8.2392 v -4.00621 c 0,-2.67808 1.106593,-5.10999 2.884699,-6.8621 6.400694,2.58491 15.395998,8.0057 21.480709,19.10751" />
      <path
         inkscape:connector-curvature="0"
         id="path4513"
         style="fill:#13234d;fill-opacity:1;fill-rule:evenodd;stroke:none;stroke-width:0.35277778"
         d="m 64.403823,263.04335 v 2.2509 c 0,1.7683 -1.446812,3.21511 -3.21511,3.21511 h -24.02011 c 2.540706,-2.17911 7.799211,-5.95601 14.611315,-6.92301 3.551308,0.97031 7.580982,1.7133 12.623905,1.457" />
      <path
         inkscape:connector-curvature="0"
         id="path4515"
         style="fill:#13234d;fill-opacity:1;fill-rule:evenodd;stroke:none;stroke-width:0.35277778"
         d="m 64.403823,250.86444 v 8.47612 c -2.65631,0.10679 -5.242524,-0.34152 -7.785911,-1.0917 -1.745015,-3.18382 -3.729602,-5.89961 -5.823514,-8.21609 4.260109,-0.44253 9.084027,-0.40961 13.609425,0.83167" />
      <path
         inkscape:connector-curvature="0"
         id="path4517"
         style="fill:#387ac7;fill-opacity:1;fill-rule:evenodd;stroke:none;stroke-width:0.35277778"
         d="m 41.897907,236.35804 h 22.505916 v 3.23501 c -4.813017,-0.16471 -12.843615,0.21862 -21.966413,3.337 -2.591117,-1.67559 -5.099015,-2.90001 -7.300207,-3.7887 l 1.06e-4,1.1e-4 c 1.743886,-1.7188 4.133991,-2.78342 6.760598,-2.78342" />
      <path
         inkscape:connector-curvature="0"
         id="path4519"
         style="fill:#1c58a9;fill-opacity:1;fill-rule:evenodd;stroke:none;stroke-width:0.35277778"
         d="m 64.403823,239.59305 v 11.27139 c -4.525115,-1.24118 -9.34861,-1.2742 -13.608508,-0.83178 -2.696598,-2.98372 -5.575088,-5.30331 -8.357905,-7.10261 9.122798,-3.11838 17.153396,-3.50171 21.966413,-3.337" />
      <path
         inkscape:connector-curvature="0"
         id="path4521"
         style="fill:#1c3c7e;fill-opacity:1;fill-rule:evenodd;stroke:none;stroke-width:0.35277778"
         d="m 37.168603,268.50936 h -4.916099 v -9.39482 c 7.373691,-2.2454 12.517014,0.5565 19.527414,2.47181 -6.812104,0.967 -12.070609,4.7439 -14.611315,6.92301" />
    </g>
  </g>
</svg>
